<svg height="512pt" viewBox="-91 0 512 512" width="512pt" xmlns="http://www.w3.org/2000/svg"><path d="m119.179688 35.300781h91.640624c2.257813 0 4.089844-1.839843 4.089844-4.089843v-31.210938h-99.820312v31.210938c0 2.25 1.832031 4.089843 4.089844 4.089843zm0 0"/><path d="m164.808594 208.378906c-9.339844 0-16.929688 7.601563-16.929688 16.941406 0 9.339844 7.589844 16.941407 16.929688 16.941407s16.941406-7.601563 16.941406-16.941407c0-9.339843-7.601562-16.941406-16.941406-16.941406zm0 0"/><path d="m275.140625 0h-30.230469v31.210938c0 18.800781-15.289062 34.089843-34.089844 34.089843h-91.640624c-18.800782 0-34.089844-15.289062-34.089844-34.089843v-31.210938h-30.230469c-30.25 0-54.859375 24.609375-54.859375 54.859375v402.28125c0 30.25 24.609375 54.859375 54.859375 54.859375h220.28125c30.25 0 54.859375-24.609375 54.859375-54.859375v-402.28125c0-30.25-24.609375-54.859375-54.859375-54.859375zm-64.320313 476.558594h-91.640624c-8.289063 0-15-6.71875-15-15 0-8.289063 6.710937-15 15-15h91.640624c8.289063 0 15 6.710937 15 15 0 8.28125-6.710937 15-15 15zm-28.992187-88.277344c-4.328125 4.820312-10.527344 7.589844-17.019531 7.589844-6.480469 0-12.679688-2.769532-17.007813-7.589844-8.742187-9.730469-85.378906-96.941406-85.378906-161.320312 0-56.460938 45.929687-102.390626 102.386719-102.390626 56.460937 0 102.390625 45.929688 102.390625 102.390626 0 64.398437-76.640625 151.589843-85.371094 161.320312zm0 0"/><path d="m164.808594 154.570312c-39.910156 0-72.386719 32.46875-72.386719 72.390626 0 21.570312 12.789063 52.128906 36.988281 88.347656 13.820313 20.679687 27.960938 38.03125 35.398438 46.8125 7.441406-8.78125 21.582031-26.121094 35.402344-46.8125 24.199218-36.21875 36.988281-66.777344 36.988281-88.347656 0-39.921876-32.46875-72.390626-72.390625-72.390626zm0 117.691407c-25.878906 0-46.929688-21.0625-46.929688-46.941407 0-25.878906 21.050782-46.941406 46.929688-46.941406 25.882812 0 46.941406 21.0625 46.941406 46.941406 0 25.878907-21.058594 46.941407-46.941406 46.941407zm0 0"/></svg>