<svg height="512pt" viewBox="-91 0 512 512" width="512pt" xmlns="http://www.w3.org/2000/svg"><path d="m119.179688 35.300781h91.640624c2.257813 0 4.089844-1.839843 4.089844-4.089843v-31.210938h-99.820312v31.210938c0 2.25 1.832031 4.089843 4.089844 4.089843zm0 0"/><path d="m275.140625 0h-30.230469v31.210938c0 18.800781-15.289062 34.089843-34.089844 34.089843h-91.640624c-18.800782 0-34.089844-15.289062-34.089844-34.089843v-31.210938h-30.230469c-30.25 0-54.859375 24.609375-54.859375 54.859375v402.28125c0 30.25 24.609375 54.859375 54.859375 54.859375h220.28125c30.25 0 54.859375-24.609375 54.859375-54.859375v-402.28125c0-30.25-24.609375-54.859375-54.859375-54.859375zm-64.320313 476.558594h-91.640624c-8.289063 0-15-6.71875-15-15 0-8.289063 6.710937-15 15-15h91.640624c8.289063 0 15 6.710937 15 15 0 8.28125-6.710937 15-15 15zm43.929688-109.738282c-7.25 5.980469-15.890625 9.007813-24.589844 9.007813-7.269531 0-14.582031-2.109375-21.179687-6.386719l-39.191407-25.382812c-2.910156-1.886719-6.667968-1.886719-9.578124 0l-39.191407 25.382812c-14.488281 9.386719-32.449219 8.359375-45.769531-2.621094-13.320312-10.96875-17.769531-28.410156-11.328125-44.421874l65.078125-161.898438c5.941406-14.78125 20.070312-24.328125 36-24.328125s30.058594 9.546875 36 24.328125l65.078125 161.898438c6.441406 16.011718 1.992187 33.453124-11.328125 44.421874zm-81.578125-195.128906c-2-4.980468-6.382813-5.519531-8.171875-5.519531s-6.171875.539063-8.171875 5.519531l-65.078125 161.898438c-2.171875 5.398437 1.078125 8.851562 2.570312 10.082031 1.5 1.226563 5.5 3.757813 10.390626.589844l39.1875-25.382813c6.410156-4.148437 13.761718-6.230468 21.101562-6.230468s14.691406 2.082031 21.101562 6.230468l39.1875 25.382813c4.882813 3.167969 8.890626.636719 10.390626-.589844 1.492187-1.230469 4.742187-4.683594 2.570312-10.082031zm0 0"/></svg>