<svg height="512pt" viewBox="-51 0 512 512" width="512pt" xmlns="http://www.w3.org/2000/svg"><path d="m205 0c-113.039062 0-205 91.960938-205 205v102c0 113.039062 91.960938 205 205 205s205-91.960938 205-205v-102c0-113.039062-91.960938-205-205-205zm90.121094 122.351562c6.597656-5.011718 16.007812-3.730468 21.019531 2.867188 13.589844 17.902344 22.71875 39.03125 26.417969 61.132812 1.363281 8.167969-4.148438 15.898438-12.320313 17.257813-.839843.140625-1.667969.210937-2.5.210937-7.1875 0-13.546875-5.191406-14.769531-12.53125-2.898438-17.308593-10.058594-33.890624-20.71875-47.917968-5.011719-6.601563-3.730469-16.011719 2.871094-21.019532zm-229.589844 87.148438c0-3.871094.160156-7.78125.46875-11.621094.679688-8.257812 7.910156-14.410156 16.191406-13.71875 8.25.679688 14.386719 7.929688 13.707032 16.179688-.25 3.03125-.367188 6.109375-.367188 9.160156v49.601562c0 8.277344-6.722656 15-15 15-8.292969 0-15-6.722656-15-15zm45.789062 177.320312c-2.609374 1.820313-5.601562 2.691407-8.550781 2.691407-4.75 0-9.410156-2.242188-12.328125-6.433594-12.820312-18.429687-21.070312-39.929687-23.839844-62.167969-1.023437-8.230468 4.808594-15.71875 13.027344-16.738281 8.222656-1.03125 15.722656 4.808594 16.742188 13.027344 2.167968 17.429687 8.640625 34.289062 18.699218 48.742187 4.730469 6.796875 3.050782 16.148438-3.75 20.878906zm1.21875-235.960937c-2.859374 4.492187-7.710937 6.949219-12.667968 6.949219-2.761719 0-5.542969-.757813-8.042969-2.339844-6.988281-4.449219-9.046875-13.71875-4.609375-20.707031 12.03125-18.921875 28.640625-34.851563 48.03125-46.070313 7.171875-4.140625 16.351562-1.691406 20.5 5.480469 4.140625 7.167969 1.691406 16.347656-5.480469 20.488281-15.230469 8.820313-28.28125 21.328125-37.730469 36.199219zm104.0625 291.640625c-3.839843.308594-7.742187.46875-11.601562.46875-22.488281 0-44.851562-5.480469-64.660156-15.859375-7.328125-3.839844-10.167969-12.910156-6.320313-20.25 3.851563-7.339844 12.910157-10.167969 20.25-6.320313 15.75 8.25 32.808594 12.429688 50.730469 12.429688 3.039062 0 6.121094-.117188 9.128906-.367188 8.25-.679687 15.5 5.457032 16.179688 13.71875.679687 8.25-5.457032 15.5-13.707032 16.179688zm33.027344-146.128906c0 24.609375-20.019531 44.628906-44.628906 44.628906s-44.628906-20.019531-44.628906-44.628906v-80.742188c0-24.609375 20.019531-44.628906 44.628906-44.628906s44.628906 20.019531 44.628906 44.628906zm-44.628906-196.339844h-.03125c-1.507812 0-3.039062.027344-4.546875.089844-8.28125.347656-15.261719-6.089844-15.601563-14.371094-.339843-8.28125 6.101563-15.261719 14.371094-15.601562 1.917969-.078126 3.859375-.117188 5.777344-.117188h.03125c20.78125 0 40.78125 4.457031 59.449219 13.269531 7.492187 3.527344 10.699219 12.46875 7.171875 19.96875-2.5625 5.421875-7.960938 8.601563-13.582032 8.601563-2.148437 0-4.320312-.460938-6.390624-1.441406-14.628907-6.898438-30.328126-10.398438-46.648438-10.398438zm120.789062 273.238281c-11.21875 19.402344-27.160156 36-46.078124 48.019531-2.492188 1.589844-5.28125 2.339844-8.03125 2.339844-4.960938 0-9.808594-2.449218-12.667969-6.949218-4.441407-6.988282-2.382813-16.257813 4.609375-20.710938 14.867187-9.4375 27.390625-22.488281 36.207031-37.71875 4.152344-7.171875 13.332031-9.621094 20.492187-5.46875 7.167969 4.148438 9.621094 13.320312 5.46875 20.488281zm18.679688-69.769531c0 1.941406-.039062 3.898438-.117188 5.828125-.332031 8.070313-6.972656 14.382813-14.972656 14.382813-.207031 0-.417968 0-.628906-.011719-8.28125-.339844-14.710938-7.328125-14.371094-15.597657.0625-1.53125.089844-3.070312.089844-4.601562v-54.78125c0-8.289062 6.722656-15 15-15 8.292969 0 15 6.710938 15 15zm0 0"/></svg>