<svg height="512pt" viewBox="0 0 512 512" width="512pt" xmlns="http://www.w3.org/2000/svg"><path d="m479.359375 100.160156h32.640625v-31.148437h-32.640625c-8.71875 0-15.789063-7.070313-15.789063-15.792969 0-8.730469 7.070313-15.796875 15.789063-15.796875h27.898437c-9.226562-21.980469-30.957031-37.421875-56.296874-37.421875h-389.921876c-25.339843 0-47.070312 15.441406-56.300781 37.421875h28.121094c8.722656 0 15.792969 7.066406 15.792969 15.796875 0 8.722656-7.070313 15.792969-15.792969 15.792969h-32.859375v31.148437h32.640625c8.71875 0 15.789063 7.070313 15.789063 15.789063 0 8.722656-7.070313 15.789062-15.789063 15.789062h-27.902344c9.230469 21.980469 30.960938 37.421875 56.300781 37.421875-25.128906 0-46.71875 15.191406-56.070312 36.890625h27.890625c8.71875 0 15.789063 7.078125 15.789063 15.800781 0 8.71875-7.070313 15.789063-15.789063 15.789063h-32.859375v35.667969h32.640625c8.71875 0 15.789063 7.070312 15.789063 15.792968 0 8.71875-7.070313 15.789063-15.789063 15.789063h-28.121094c9.101563 22.257813 30.980469 37.949219 56.519531 37.949219-25.339843 0-47.070312 15.441406-56.300781 37.421875h28.121094c8.722656 0 15.792969 7.066406 15.792969 15.789062 0 8.71875-7.070313 15.789063-15.792969 15.789063h-32.859375v31.148437h32.640625c8.71875 0 15.789063 7.070313 15.789063 15.792969 0 8.730469-7.070313 15.796875-15.789063 15.796875h-27.902344c9.230469 21.980469 30.960938 37.421875 56.300781 37.421875h389.921876c25.339843 0 47.070312-15.441406 56.300781-37.421875h-27.902344c-8.71875 0-15.789063-7.066406-15.789063-15.796875 0-8.722656 7.070313-15.792969 15.789063-15.792969h32.640625v-31.148437h-32.640625c-8.71875 0-15.789063-7.070313-15.789063-15.789063 0-8.722656 7.070313-15.789062 15.789063-15.789062h27.898437c-9.230468-21.980469-30.957031-37.421875-56.300781-37.421875 25.539063 0 47.421875-15.691406 56.523438-37.949219h-28.121094c-8.722656 0-15.792969-7.070313-15.792969-15.789063 0-8.722656 7.070313-15.792968 15.792969-15.792968h32.640625v-35.667969h-32.640625c-8.71875 0-15.789063-7.070313-15.789063-15.789063 0-8.722656 7.070313-15.800781 15.789063-15.800781h27.667969c-9.347656-21.699219-30.9375-36.890625-56.070313-36.890625 25.339844 0 47.070313-15.441406 56.300781-37.421875h-27.898437c-8.71875 0-15.789063-7.066406-15.789063-15.789062 0-8.71875 7.070313-15.789063 15.789063-15.789063zm-126.34375 173.148438h63.171875c8.71875 0 15.789062 7.070312 15.789062 15.792968 0 8.71875-7.070312 15.789063-15.789062 15.789063h-63.171875c-8.730469 0-15.796875-7.070313-15.796875-15.789063 0-8.722656 7.066406-15.792968 15.796875-15.792968zm-130.863281 0h67.683594c8.730468 0 15.800781 7.070312 15.800781 15.792968 0 8.71875-7.070313 15.789063-15.800781 15.789063h-67.683594c-8.71875 0-15.789063-7.070313-15.789063-15.789063 0-8.722656 7.070313-15.792968 15.789063-15.792968zm-126.339844 0h63.171875c8.71875 0 15.796875 7.070312 15.796875 15.792968 0 8.71875-7.078125 15.789063-15.796875 15.789063h-63.171875c-8.71875 0-15.789062-7.070313-15.789062-15.789063 0-8.722656 7.070312-15.792968 15.789062-15.792968zm63.171875 201.269531h-63.171875c-8.71875 0-15.789062-7.066406-15.789062-15.796875 0-8.722656 7.070312-15.792969 15.789062-15.792969h63.171875c8.71875 0 15.796875 7.070313 15.796875 15.792969 0 8.730469-7.078125 15.796875-15.796875 15.796875zm.160156-62.738281h-63.140625c-8.730468 0-15.800781-7.070313-15.800781-15.789063 0-8.722656 7.070313-15.789062 15.800781-15.789062h63.140625c8.71875 0 15.789063 7.066406 15.789063 15.789062 0 8.71875-7.070313 15.789063-15.789063 15.789063zm0-174.199219h-63.140625c-8.730468 0-15.800781-7.070313-15.800781-15.789063 0-8.722656 7.070313-15.800781 15.800781-15.800781h63.140625c8.71875 0 15.789063 7.078125 15.789063 15.800781 0 8.71875-7.070313 15.789063-15.789063 15.789063zm-79.125-121.691406c0-8.71875 7.070313-15.789063 15.792969-15.789063h63.167969c8.722656 0 15.800781 7.070313 15.800781 15.789063 0 8.722656-7.078125 15.789062-15.800781 15.789062h-63.167969c-8.71875 0-15.792969-7.066406-15.792969-15.789062zm79.125-46.9375h-63.140625c-8.730468 0-15.800781-7.070313-15.800781-15.792969 0-8.730469 7.070313-15.796875 15.800781-15.796875h63.140625c8.71875 0 15.789063 7.066406 15.789063 15.796875 0 8.722656-7.070313 15.792969-15.789063 15.792969zm130.691407 405.566406h-67.683594c-8.71875 0-15.789063-7.066406-15.789063-15.796875 0-8.722656 7.070313-15.792969 15.789063-15.792969h67.683594c8.730468 0 15.800781 7.070313 15.800781 15.792969 0 8.730469-7.070313 15.796875-15.800781 15.796875zm.101562-62.738281h-67.652344c-8.730468 0-15.800781-7.070313-15.800781-15.789063 0-8.722656 7.070313-15.789062 15.800781-15.789062h67.652344c8.71875 0 15.789062 7.066406 15.789062 15.789062 0 8.71875-7.070312 15.789063-15.789062 15.789063zm0-174.199219h-67.652344c-8.730468 0-15.800781-7.070313-15.800781-15.789063 0-8.722656 7.070313-15.800781 15.800781-15.800781h67.652344c8.71875 0 15.789062 7.078125 15.789062 15.800781 0 8.71875-7.070312 15.789063-15.789062 15.789063zm-83.574219-121.691406c0-8.71875 7.070313-15.789063 15.789063-15.789063h67.683594c8.730468 0 15.800781 7.070313 15.800781 15.789063 0 8.722656-7.070313 15.789062-15.800781 15.789062h-67.683594c-8.71875 0-15.789063-7.066406-15.789063-15.789062zm83.574219-46.9375h-67.652344c-8.730468 0-15.800781-7.070313-15.800781-15.792969 0-8.730469 7.070313-15.796875 15.800781-15.796875h67.652344c8.71875 0 15.789062 7.066406 15.789062 15.796875 0 8.722656-7.070312 15.792969-15.789062 15.792969zm126.25 405.566406h-63.171875c-8.730469 0-15.796875-7.066406-15.796875-15.796875 0-8.722656 7.066406-15.792969 15.796875-15.792969h63.171875c8.71875 0 15.789062 7.070313 15.789062 15.792969.003907 8.730469-7.066406 15.796875-15.789062 15.796875zm.03125-62.738281h-63.140625c-8.71875 0-15.800781-7.070313-15.800781-15.789063 0-8.722656 7.082031-15.789062 15.800781-15.789062h63.140625c8.71875 0 15.789062 7.066406 15.789062 15.789062 0 8.71875-7.070312 15.789063-15.789062 15.789063zm0-174.199219h-63.140625c-8.71875 0-15.800781-7.070313-15.800781-15.789063 0-8.722656 7.082031-15.800781 15.800781-15.800781h63.140625c8.71875 0 15.789062 7.078125 15.789062 15.800781 0 8.71875-7.070312 15.789063-15.789062 15.789063zm-79-121.691406c0-8.71875 7.066406-15.789063 15.796875-15.789063h63.171875c8.71875 0 15.789062 7.070313 15.789062 15.789063 0 8.722656-7.070312 15.789062-15.789062 15.789062h-63.171875c-8.730469 0-15.796875-7.066406-15.796875-15.789062zm79-46.9375h-63.140625c-8.71875 0-15.800781-7.070313-15.800781-15.792969 0-8.730469 7.082031-15.796875 15.800781-15.796875h63.140625c8.71875 0 15.789062 7.066406 15.789062 15.796875 0 8.722656-7.070312 15.792969-15.789062 15.792969zm0 0"/></svg>