<svg height="512pt" viewBox="-53 0 512 512" width="512pt" xmlns="http://www.w3.org/2000/svg"><path d="m153.960938 151.910156c9.550781-9.550781 21.238281-15.699218 33.539062-18.429687v-51.152344c-36.210938 4.570313-67.410156 25.472656-85.960938 55.0625l46.410157 21.378906c1.820312-2.390625 3.832031-4.679687 6.011719-6.859375zm0 0"/><path d="m260.480469 237.21875 36.109375 36.109375c15.648437-20.15625 24.96875-45.449219 24.96875-72.878906 0-12.460938-1.917969-24.46875-5.488282-35.757813l-46.460937 21.398438c3.671875 17.289062.628906 35.738281-9.128906 51.128906zm0 0"/><path d="m202.5 269.058594c-12.800781 0-25.589844-3.539063-36.769531-10.628906l-36.109375 36.109374c20.160156 15.652344 45.449218 24.972657 72.878906 24.972657s52.71875-9.320313 72.878906-24.972657l-36.109375-36.109374c-11.179687 7.089843-23.96875 10.628906-36.769531 10.628906zm0 0"/><path d="m202.5 0c-111.660156 0-202.5 90.710938-202.5 202.199219 0 36.390625 9.378906 74.980469 27.890625 114.679687 14.550781 31.230469 34.769531 63.261719 60.097656 95.210938 42.882813 54.082031 85.222657 88.96875 87 90.429687 7.710938 6.320313 17.613281 9.480469 27.511719 9.480469s19.800781-3.160156 27.511719-9.480469c1.777343-1.460937 44.117187-36.347656 87-90.429687 25.328125-31.949219 45.546875-63.980469 60.097656-95.210938 18.511719-39.699218 27.890625-78.289062 27.890625-114.679687 0-111.488281-90.839844-202.199219-202.5-202.199219zm0 349.511719c-82.191406 0-149.058594-66.871094-149.058594-149.0625 0-82.1875 66.867188-149.058594 149.058594-149.058594s149.058594 66.871094 149.058594 149.058594c0 82.191406-66.867188 149.0625-149.058594 149.0625zm0 0"/><path d="m135.410156 186.019531-46.460937-21.398437c-3.578125 11.308594-5.507813 23.347656-5.507813 35.828125 0 27.429687 9.320313 52.722656 24.96875 72.878906l36.109375-36.109375c-9.769531-15.410156-12.808593-33.878906-9.109375-51.199219zm0 0"/><path d="m175.171875 227.78125c15.066406 15.070312 39.589844 15.070312 54.65625 0 15.070313-15.070312 15.070313-39.589844 0-54.660156-7.539063-7.53125-17.429687-11.300782-27.328125-11.300782s-19.789062 3.769532-27.328125 11.300782c-15.070313 15.070312-15.070313 39.589844 0 54.660156zm0 0"/><path d="m257.089844 158.820312 46.398437-21.371093c-18.539062-29.621094-49.757812-50.550781-85.988281-55.121094v51.152344c12.300781 2.730469 23.988281 8.878906 33.539062 18.429687 2.199219 2.199219 4.222657 4.511719 6.050782 6.910156zm0 0"/></svg>