<svg height="512pt" viewBox="0 0 512 512" width="512pt" xmlns="http://www.w3.org/2000/svg"><path d="m110.28125 136.121094c-10.960938 0-19.882812 8.917968-19.882812 19.878906s8.921874 19.878906 19.882812 19.878906c10.957031 0 19.878906-8.917968 19.878906-19.878906s-8.921875-19.878906-19.878906-19.878906zm0 0"/><path d="m256.089844 276.121094c-10.960938 0-19.878906 8.917968-19.878906 19.878906s8.917968 19.878906 19.878906 19.878906c10.96875 0 19.878906-8.917968 19.878906-19.878906s-8.910156-19.878906-19.878906-19.878906zm0 0"/><path d="m256.28125 136.121094c-10.960938 0-19.882812 8.917968-19.882812 19.878906s8.921874 19.878906 19.882812 19.878906c10.957031 0 19.878906-8.917968 19.878906-19.878906s-8.921875-19.878906-19.878906-19.878906zm0 0"/><path d="m402.28125 136.121094c-10.960938 0-19.882812 8.917968-19.882812 19.878906s8.921874 19.878906 19.882812 19.878906c10.957031 0 19.878906-8.917968 19.878906-19.878906s-8.921875-19.878906-19.878906-19.878906zm0 0"/><path d="m422.140625 45.730469h-116.261719v-13.503907c0-17.769531-14.457031-32.226562-32.226562-32.226562h-35.683594c-17.769531 0-32.226562 14.457031-32.226562 32.226562v13.503907h-115.882813c-49.550781 0-89.859375 40.308593-89.859375 89.859375v180.820312c0 49.550782 40.308594 89.859375 89.859375 89.859375h332.28125c49.550781 0 89.859375-40.308593 89.859375-89.859375v-180.820312c0-49.550782-40.308594-89.859375-89.859375-89.859375zm-312.050781 300.148437c-27.5 0-49.878906-22.378906-49.878906-49.878906s22.378906-49.878906 49.878906-49.878906c27.511718 0 49.878906 22.378906 49.878906 49.878906s-22.367188 49.878906-49.878906 49.878906zm.191406-140c-27.5 0-49.882812-22.378906-49.882812-49.878906s22.382812-49.878906 49.882812-49.878906c27.507812 0 49.878906 22.378906 49.878906 49.878906s-22.371094 49.878906-49.878906 49.878906zm145.808594 140c-27.5 0-49.878906-22.378906-49.878906-49.878906s22.378906-49.878906 49.878906-49.878906c27.511718 0 49.878906 22.378906 49.878906 49.878906s-22.367188 49.878906-49.878906 49.878906zm.191406-140c-27.5 0-49.882812-22.378906-49.882812-49.878906s22.382812-49.878906 49.882812-49.878906c27.507812 0 49.878906 22.378906 49.878906 49.878906s-22.371094 49.878906-49.878906 49.878906zm145.808594 140c-27.5 0-49.878906-22.378906-49.878906-49.878906s22.378906-49.878906 49.878906-49.878906c27.511718 0 49.878906 22.378906 49.878906 49.878906s-22.367188 49.878906-49.878906 49.878906zm.191406-140c-27.5 0-49.882812-22.378906-49.882812-49.878906s22.382812-49.878906 49.882812-49.878906c27.507812 0 49.878906 22.378906 49.878906 49.878906s-22.371094 49.878906-49.878906 49.878906zm0 0"/><path d="m402.089844 276.121094c-10.960938 0-19.878906 8.917968-19.878906 19.878906s8.917968 19.878906 19.878906 19.878906c10.96875 0 19.878906-8.917968 19.878906-19.878906s-8.910156-19.878906-19.878906-19.878906zm0 0"/><path d="m110.089844 276.121094c-10.960938 0-19.878906 8.917968-19.878906 19.878906s8.917968 19.878906 19.878906 19.878906c10.96875 0 19.878906-8.917968 19.878906-19.878906s-8.910156-19.878906-19.878906-19.878906zm0 0"/><path d="m205.742188 479.773438c0 17.769531 14.457031 32.226562 32.226562 32.226562h35.683594c17.769531 0 32.226562-14.457031 32.226562-32.226562v-43.773438h-100.136718zm0 0"/></svg>