<svg height="512pt" viewBox="0 -108 512.00028 512" width="512pt" xmlns="http://www.w3.org/2000/svg"><path d="m474.972656 39.617188c-13.636718-13.945313-29.792968-24.460938-47.457031-31.152344-14.71875-5.554688-30.496094-8.464844-46.730469-8.464844h-247.753906c-16.867188 0-33.292969 3.152344-48.5625 9.113281-21.015625 8.214844-39.835938 21.75-54.582031 39.726563-25.078125 30.582031-35.042969 70.230468-27.339844 108.757812l20.917969 94.136719c3.402344 15.308594 13.085937 28.714844 26.550781 36.777344 13.585937 8.140625 29.441406 10.304687 44.699219 6.101562 1.640625-.410156 3.28125-.808593 4.921875-1.210937 102.34375-24.78125 210.15625-24.789063 312.5-.007813 1.652343.398438 3.300781.808594 4.953125 1.21875 5.082031 1.402344 10.222656 2.089844 15.335937 2.089844 10.222657 0 20.296875-2.769531 29.363281-8.203125 13.464844-8.0625 23.136719-21.46875 26.539063-36.765625l20.269531-91.085937c2.03125-9.125 3.160156-18.46875 3.371094-27.78125.761719-34.964844-12.375-68.089844-36.996094-93.25zm-421.875 28.25c11.644532-14.214844 26.582032-24.839844 43.257813-31.160157 17.597656 27.160157 29.453125 55 35.433593 83.144531-36.722656 2.609376-71.128906 13.425782-99.910156 31.339844-5.742187-29.519531 1.980469-59.851562 21.21875-83.324218zm56.84375 192.390624-23.101562 5.394532c-7.292969 2.03125-14.894532 1.007812-21.398438-2.882813-6.53125-3.910156-11.035156-10.144531-12.683594-17.558593l-13.917968-62.554688c26.472656-18.996094 60.875-30.664062 97.070312-32.972656 2.460938 38.363281-6.261718 75.519531-25.96875 110.574218zm111.835938-52.769531c0 8.28125-6.710938 15.003907-15.007813 15.003907-8.28125 0-15.003906-6.722657-15.003906-15.003907v-20.011719c0-8.292968 6.722656-15.003906 15.003906-15.003906 8.296875 0 15.007813 6.710938 15.007813 15.003906zm49.222656 0c0 8.28125-6.722656 15.003907-15.007812 15.003907-8.292969 0-15.007813-6.722657-15.007813-15.003907v-20.011719c0-8.292968 6.714844-15.003906 15.007813-15.003906 8.285156 0 15.007812 6.710938 15.007812 15.003906zm49.21875 0c0 8.28125-6.722656 15.003907-15.007812 15.003907-8.292969 0-15.003907-6.722657-15.003907-15.003907v-20.011719c0-8.292968 6.710938-15.003906 15.003907-15.003906 8.285156 0 15.007812 6.710938 15.007812 15.003906zm-35.816406-61.675781h-57.023438c-24.710937 0-44.816406-20.101562-44.816406-44.808594 0-24.710937 20.105469-44.820312 44.816406-44.820312h57.023438c24.710937 0 44.820312 20.109375 44.820312 44.820312 0 24.707032-20.109375 44.808594-44.820312 44.808594zm174.625 99.398438c-1.640625 7.40625-6.144532 13.636718-12.664063 17.550781-6.515625 3.898437-14.117187 4.929687-21.410156 2.890625l-.390625-.101563c-7.542969-1.890625-15.125-3.660156-22.71875-5.28125-19.710938-35.054687-28.433594-72.210937-25.972656-110.585937 36.207031 2.308594 70.601562 13.984375 97.082031 32.972656zm22.929687-113.003907c-.140625 6.351563-.820312 12.734375-2.042969 18.996094-28.78125-17.925781-63.195312-28.742187-99.921874-31.351563 6.023437-28.332031 18-56.355468 35.796874-83.695312 14.066407 5.132812 26.921876 13.40625 37.734376 24.449219 18.917968 19.347656 29.023437 44.777343 28.433593 71.601562zm0 0"/><path d="m284.402344 86.195312h-57.023438c-8.164062 0-14.804687 6.644532-14.804687 14.808594 0 8.160156 6.640625 14.792969 14.804687 14.792969h57.023438c8.164062 0 14.808594-6.632813 14.808594-14.792969 0-8.164062-6.644532-14.808594-14.808594-14.808594zm0 0"/></svg>