<svg height="512pt" viewBox="0 0 512 512" width="512pt" xmlns="http://www.w3.org/2000/svg"><path d="m334.691406 120.191406h-157.261718l-14.976563 45h187.214844zm0 0"/><path d="m359.652344 195.191406h-207.183594l-16.660156 50.058594h240.503906zm0 0"/><path d="m386.296875 275.25h-260.472656l-15.007813 45.101562h290.492188zm0 0"/><path d="m306.707031 36.097656-.078125-.230468c-7.652344-21.789063-27.5-35.867188-50.566406-35.867188-23.070312 0-42.917969 14.078125-50.566406 35.867188l-18.082032 54.324218h137.296876zm0 0"/><path d="m434.566406 402.847656h-5.804687l-17.472657-52.5h-310.457031l-17.472656 52.5h-5.925781c-27.566406 0-50.136719 21.796875-51.378906 49.0625h459.890624c-1.242187-27.265625-23.8125-49.0625-51.378906-49.0625zm0 0"/><path d="m497 482h-482c-8.285156 0-15 6.714844-15 15s6.714844 15 15 15h482c8.285156 0 15-6.714844 15-15s-6.714844-15-15-15zm0 0"/></svg>