<svg height="512pt" viewBox="0 0 512 512" width="512pt" xmlns="http://www.w3.org/2000/svg"><path d="m256 324.621094c-12.800781 0-25.589844-3.550782-36.769531-10.640625l-36.109375 36.109375c20.160156 15.648437 45.449218 24.96875 72.878906 24.96875s52.71875-9.320313 72.878906-24.96875l-36.109375-36.109375c-11.179687 7.089843-23.96875 10.640625-36.769531 10.640625zm0 0"/><path d="m304.539062 207.460938c2.199219 2.199218 4.222657 4.507812 6.050782 6.910156l46.398437-21.371094c-18.539062-29.621094-49.757812-50.550781-85.988281-55.121094v51.152344c6.148438 1.367188 12.148438 3.589844 17.800781 6.660156 5.660157 3.070313 10.960938 6.988282 15.738281 11.769532zm0 0"/><path d="m483.109375 202.441406h-16.390625c-5.128906-20.292968-13.140625-39.621094-23.839844-57.582031l16.0625-16.058594c4.269532-4.25 6.617188-9.902343 6.617188-15.921875.011718-6.027344-2.339844-11.6875-6.597656-15.949218l-43.871094-43.878907c-4.25-4.261719-9.898438-6.609375-15.929688-6.609375h-.011718c-6.019532 0-11.679688 2.339844-15.929688 6.597656l-16.089844 16.082032c-17.949218-10.691406-37.277344-18.691406-57.570312-23.839844v-16.382812c0-15.9375-12.957032-28.898438-28.898438-28.898438h-49.332031c-15.929687 0-28.886719 12.960938-28.886719 28.890625v16.390625c-20.269531 5.128906-39.613281 13.140625-57.570312 23.839844l-16.070313-16.070313c-4.25-4.261719-9.902343-6.609375-15.921875-6.609375h-.019531c-6.019531 0-11.679687 2.339844-15.929687 6.597656l-43.878907 43.871094c-4.261719 4.25-6.609375 9.898438-6.609375 15.917969-.011718 6.03125 2.339844 11.691406 6.597656 15.953125l16.082032 16.078125c-10.691406 17.949219-18.699219 37.28125-23.839844 57.582031h-16.390625c-15.929687 0-28.890625 12.957032-28.890625 28.886719v49.34375c0 15.929687 12.960938 28.886719 28.890625 28.886719h16.390625c5.128906 20.28125 13.140625 39.613281 23.839844 57.582031l-16.070313 16.058594c-4.261719 4.25-6.609375 9.902343-6.609375 15.921875-.011718 6.027344 2.339844 11.6875 6.597656 15.949218l43.871094 43.878907c4.25 4.261719 9.898438 6.609375 15.929688 6.609375h.011718c6.019532 0 11.679688-2.339844 15.929688-6.597656l16.089844-16.082032c17.949218 10.691406 37.277344 18.691406 57.570312 23.839844v16.390625c0 15.929687 12.957032 28.890625 28.886719 28.890625h49.34375c15.929687 0 28.886719-12.960938 28.886719-28.890625v-16.390625c20.269531-5.128906 39.613281-13.140625 57.570312-23.839844l16.070313 16.070313c4.25 4.261719 9.902343 6.609375 15.921875 6.609375h.019531c6.019531 0 11.679687-2.339844 15.929687-6.597656l43.878907-43.871094c4.261719-4.25 6.609375-9.898438 6.609375-15.917969.011718-6.03125-2.339844-11.691406-6.597656-15.953125l-16.082032-16.089844c10.691406-17.949218 18.699219-37.277344 23.839844-57.570312h16.390625c15.929687 0 28.890625-12.957032 28.890625-28.886719v-49.34375c0-15.929687-12.960938-28.886719-28.890625-28.886719zm-227.109375 202.617188c-82.191406 0-149.058594-66.867188-149.058594-149.058594s66.867188-149.058594 149.058594-149.058594 149.058594 66.867188 149.058594 149.058594-66.867188 149.058594-149.058594 149.058594zm0 0"/><path d="m313.980469 292.769531 36.109375 36.109375c15.648437-20.160156 24.96875-45.449218 24.96875-72.878906 0-12.460938-1.917969-24.46875-5.488282-35.761719l-46.460937 21.402344c3.671875 17.289063.628906 35.738281-9.128906 51.128906zm0 0"/><path d="m228.671875 283.328125c15.066406 15.070313 39.589844 15.070313 54.65625 0 15.070313-15.066406 15.070313-39.589844 0-54.65625-7.539063-7.53125-17.429687-11.300781-27.328125-11.300781s-19.789062 3.769531-27.328125 11.300781c-15.070313 15.066406-15.070313 39.589844 0 54.65625zm0 0"/><path d="m207.460938 207.460938c9.550781-9.550782 21.238281-15.691407 33.539062-18.429688v-51.152344c-36.210938 4.570313-67.410156 25.472656-85.960938 55.070313l46.410157 21.371093c1.820312-2.390624 3.832031-4.679687 6.011719-6.859374zm0 0"/><path d="m188.910156 241.570312-46.460937-21.398437c-3.578125 11.308594-5.507813 23.347656-5.507813 35.828125 0 27.429688 9.320313 52.71875 24.96875 72.878906l36.109375-36.109375c-9.769531-15.410156-12.808593-33.878906-9.109375-51.199219zm0 0"/></svg>