<svg height="512pt" viewBox="0 0 512 512" width="512pt" xmlns="http://www.w3.org/2000/svg"><path d="m228.671875 283.328125c15.066406 15.070313 39.589844 15.070313 54.65625 0 15.070313-15.066406 15.070313-39.589844 0-54.65625-7.539063-7.53125-17.429687-11.300781-27.328125-11.300781s-19.789062 3.769531-27.328125 11.300781c-15.070313 15.066406-15.070313 39.589844 0 54.65625zm0 0"/><path d="m369.570312 220.238281-46.460937 21.402344c3.671875 17.289063.628906 35.738281-9.128906 51.128906l36.109375 36.109375c15.648437-20.160156 24.96875-45.449218 24.96875-72.878906 0-12.460938-1.917969-24.46875-5.488282-35.761719zm0 0"/><path d="m256 69.488281c-102.839844 0-186.511719 83.671875-186.511719 186.511719s83.671875 186.511719 186.511719 186.511719 186.511719-83.671875 186.511719-186.511719-83.671875-186.511719-186.511719-186.511719zm0 335.570313c-82.191406 0-149.058594-66.867188-149.058594-149.058594s66.867188-149.058594 149.058594-149.058594 149.058594 66.867188 149.058594 149.058594-66.867188 149.058594-149.058594 149.058594zm0 0"/><path d="m437.019531 74.980469c-48.347656-48.351563-112.640625-74.980469-181.019531-74.980469s-132.671875 26.628906-181.019531 74.980469c-48.351563 48.347656-74.980469 112.640625-74.980469 181.019531s26.628906 132.671875 74.980469 181.019531c48.347656 48.351563 112.640625 74.980469 181.019531 74.980469s132.671875-26.628906 181.019531-74.980469c48.351563-48.347656 74.980469-112.640625 74.980469-181.019531s-26.628906-132.671875-74.980469-181.019531zm-27.929687 334.109375c-40.890625 40.898437-95.261719 63.421875-153.089844 63.421875s-112.199219-22.523438-153.089844-63.421875c-40.898437-40.890625-63.421875-95.261719-63.421875-153.089844s22.523438-112.199219 63.421875-153.089844c40.890625-40.898437 95.261719-63.421875 153.089844-63.421875s112.199219 22.523438 153.089844 63.421875c40.898437 40.890625 63.421875 95.261719 63.421875 153.089844s-22.523438 112.199219-63.421875 153.089844zm0 0"/><path d="m256 324.621094c-12.800781 0-25.589844-3.550782-36.769531-10.640625l-36.109375 36.109375c20.160156 15.648437 45.449218 24.96875 72.878906 24.96875s52.71875-9.320313 72.878906-24.96875l-36.109375-36.109375c-11.179687 7.089843-23.96875 10.640625-36.769531 10.640625zm0 0"/><path d="m207.460938 207.460938c9.550781-9.550782 21.238281-15.691407 33.539062-18.429688v-51.152344c-36.210938 4.570313-67.410156 25.472656-85.960938 55.070313l46.410157 21.371093c1.820312-2.390624 3.832031-4.679687 6.011719-6.859374zm0 0"/><path d="m188.910156 241.570312-46.460937-21.398437c-3.578125 11.308594-5.507813 23.347656-5.507813 35.828125 0 27.429688 9.320313 52.71875 24.96875 72.878906l36.109375-36.109375c-9.769531-15.410156-12.808593-33.878906-9.109375-51.199219zm0 0"/><path d="m310.589844 214.371094 46.398437-21.371094c-18.539062-29.621094-49.757812-50.550781-85.988281-55.121094v51.152344c12.300781 2.738281 23.988281 8.878906 33.539062 18.429688 2.199219 2.199218 4.222657 4.507812 6.050782 6.910156zm0 0"/></svg>