<svg height="512pt" viewBox="0 0 512 512" width="512pt" xmlns="http://www.w3.org/2000/svg"><path d="m256.191406 207.230469c-26.902344 0-48.769531 21.878906-48.769531 48.769531s21.867187 48.769531 48.769531 48.769531c26.886719 0 48.769532-21.878906 48.769532-48.769531s-21.882813-48.769531-48.769532-48.769531zm0 0"/><path d="m497 241.089844h-92.488281c-2.992188-29.917969-14.863281-57.269532-32.933594-79.351563l65.511719-65.507812c5.851562-5.851563 5.851562-15.351563 0-21.210938-5.859375-5.859375-15.359375-5.859375-21.21875 0l-65.511719 65.511719c-22.050781-18.011719-49.328125-29.851562-79.167969-32.839844v-92.691406c0-8.28125-6.722656-15-15-15-8.292968 0-15 6.71875-15 15v92.691406c-29.839844 2.988282-57.121094 14.828125-79.160156 32.828125l-65.703125-65.699219c-5.859375-5.859374-15.359375-5.859374-21.21875 0-5.847656 5.859376-5.847656 15.359376 0 21.210938l65.699219 65.699219c-18.039063 22.039062-29.910156 49.320312-32.917969 79.179687h-92.890625c-8.28125 0-15 6.710938-15 15 0 8.28125 6.71875 15 15 15h92.871094c2.96875 29.808594 14.769531 57.070313 32.730468 79.109375l-65.691406 65.691407c-5.851562 5.859374-5.851562 15.359374 0 21.21875 2.929688 2.921874 6.769532 4.390624 10.609375 4.390624 3.839844 0 7.679688-1.46875 10.609375-4.390624l65.652344-65.660157c22.039062 18.089844 49.339844 29.992188 79.21875 33.019531v92.710938c0 8.28125 6.71875 15 15 15s15-6.71875 15-15v-92.671875c29.898438-2.957031 57.230469-14.796875 79.320312-32.828125l65.488282 65.488281c2.921875 2.933594 6.761718 4.402344 10.601562 4.402344s7.679688-1.46875 10.609375-4.402344c5.859375-5.859375 5.859375-15.347656 0-21.207031l-65.480469-65.480469c18.0625-22.039062 29.929688-49.339843 32.949219-79.210937h92.511719c8.28125 0 15-6.710938 15-15 0-8.28125-6.71875-15-15-15zm-240.808594 93.679687c-43.441406 0-78.769531-35.328125-78.769531-78.769531s35.328125-78.769531 78.769531-78.769531c43.429688 0 78.769532 35.328125 78.769532 78.769531s-35.339844 78.769531-78.769532 78.769531zm0 0"/></svg>