<svg height="512pt" viewBox="0 0 512.00001 512" width="512pt" xmlns="http://www.w3.org/2000/svg"><path d="m29.703125 0c-16.402344 0-29.703125 13.300781-29.703125 29.703125v452.59375c0 16.402344 13.300781 29.703125 29.703125 29.703125 16.40625 0 29.707031-13.300781 29.707031-29.703125v-452.59375c0-16.402344-13.300781-29.703125-29.707031-29.703125zm0 0"/><path d="m89.410156 30.351562h85.660156v108.136719h-85.660156zm0 0"/><path d="m89.410156 168.488281h85.660156v95h-85.660156zm0 0"/><path d="m89.410156 293.488281h85.660156v98.152344h-85.660156zm0 0"/><path d="m205.070312 30.347656h79v108.140625h-79zm0 0"/><path d="m205.070312 168.488281h79v95h-79zm0 0"/><path d="m205.070312 293.488281h79v98.148438h-79zm0 0"/><path d="m314.070312 30.347656h81v108.140625h-81zm0 0"/><path d="m314.070312 168.488281h81v95h-81zm0 0"/><path d="m314.070312 293.488281h81v98.148438h-81zm0 0"/><path d="m467.871094 30.347656h-42.800782v108.140625h86.929688v-64.019531c0-24.332031-19.789062-44.121094-44.128906-44.121094zm0 0"/><path d="m425.070312 168.488281h86.929688v95h-86.929688zm0 0"/><path d="m425.070312 391.636719h42.800782c24.339844 0 44.128906-19.789063 44.128906-44.128907v-54.019531h-86.929688zm0 0"/></svg>