<svg height="511pt" viewBox="0 0 511.99969 511" width="511pt" xmlns="http://www.w3.org/2000/svg"><path d="m4.9375 387.507812c-3.15625 3.15625-4.9492188 7.511719-4.9375 11.96875l.00390625 96.1875v.15625c.05078125 4.550782 1.94140575 8.691407 4.96093775 11.710938 3.019531 3.019531 7.164062 4.914062 11.710937 4.960938l96.34375.007812c4.460938.011719 8.816407-1.785156 11.96875-4.9375l13.011719-13.011719c3.070312-3.070312 4.820312-7.148437 4.929688-11.492187l1.09375-43.511719 45.339843-3.128906c8.65625-.597657 15.398438-7.589844 15.683594-16.269531l1.371094-42.496094 42.996093-1.082032c4.339844-.105468 8.425782-1.859374 11.496094-4.929687l12.9375-12.9375-120.050781-120.054687zm0 0"/><path d="m385.066406 87.476562 39.953125 39.957032c2.84375 2.84375 7.472657 2.84375 10.3125 0l44.347657-44.34375-50.269532-50.269532-44.34375 44.34375c-2.84375 2.84375-2.84375 7.472657 0 10.3125zm0 0"/><path d="m499.816406 105.382812-43.269531 43.265626c-14.539063 14.542968-38.199219 14.542968-52.742187 0l-39.957032-39.953126c-14.539062-14.542968-14.539062-38.203124 0-52.746093l43.269532-43.265625c-28.804688-18.964844-68.007813-15.789063-93.328126 9.53125l-134.191406 134.191406c-14.191406 14.1875-14.191406 37.28125 0 51.472656l125.023438 125.023438c14.191406 14.191406 37.28125 14.191406 51.472656 0l134.191406-134.191406c25.320313-25.320313 28.496094-64.527344 9.53125-93.328126zm-162.097656 162.09375c-5.855469 5.859376-15.355469 5.859376-21.210938 0l-71.488281-71.484374c-5.855469-5.855469-5.855469-15.355469 0-21.214844 5.859375-5.855469 15.359375-5.855469 21.214844 0l71.484375 71.488281c5.859375 5.855469 5.859375 15.355469 0 21.210937zm42.429688-42.425781c-5.859376 5.855469-15.355469 5.855469-21.214844 0l-71.484375-71.484375c-5.859375-5.859375-5.859375-15.359375 0-21.214844 5.859375-5.859374 15.355469-5.859374 21.214843 0l71.484376 71.484376c5.859374 5.855468 5.859374 15.355468 0 21.214843zm0 0"/></svg>