<svg height="512pt" viewBox="-41 0 512 512" width="512pt" xmlns="http://www.w3.org/2000/svg"><path d="m385 422h-340c-24.8125 0-45 20.1875-45 45s20.1875 45 45 45h340c24.8125 0 45-20.1875 45-45s-20.1875-45-45-45zm0 0"/><path d="m305.328125 348.785156h-180.65625c-23.828125 0-43.214844 19.386719-43.214844 43.214844h267.085938c0-23.828125-19.386719-43.214844-43.214844-43.214844zm0 0"/><path d="m215 188.613281c52 0 94.308594-42.304687 94.308594-94.304687 0-52.003906-42.308594-94.308594-94.308594-94.308594s-94.308594 42.304688-94.308594 94.308594c0 52 42.308594 94.304687 94.308594 94.304687zm0 0"/><path d="m164.859375 204.152344v114.632812h100.28125v-114.632812c-14.535156 9.160156-31.730469 14.460937-50.140625 14.460937s-35.605469-5.300781-50.140625-14.460937zm0 0"/></svg>