<svg height="512pt" viewBox="-61 0 512 512" width="512pt" xmlns="http://www.w3.org/2000/svg"><path d="m315.78125 0h-.203125c-24.566406 0-44.558594 19.988281-44.558594 44.558594v43.601562h89.320313v-43.601562c0-24.570313-19.988282-44.558594-44.558594-44.558594zm0 0"/><path d="m271.019531 118.160156h89.320313v89.5h-89.320313zm0 0"/><path d="m271.019531 237.660156h89.320313v92.5h-89.320313zm0 0"/><path d="m271.019531 467.441406c0 24.570313 19.992188 44.558594 44.558594 44.558594h.203125c24.570312 0 44.558594-19.988281 44.558594-44.558594v-107.28125h-89.320313zm0 0"/><path d="m120.359375 83.148438c-11 0-19.960937 8.980468-19.960937 20.011718 0 11.039063 8.960937 20.019532 19.960937 20.019532 11.011719 0 19.960937-8.980469 19.960937-20.019532 0-11.03125-8.949218-20.011718-19.960937-20.011718zm0 0"/><path d="m120.359375 325.148438c-11 0-19.960937 8.980468-19.960937 20.011718 0 11.039063 8.960937 20.019532 19.960937 20.019532 11.011719 0 19.960937-8.980469 19.960937-20.019532 0-11.03125-8.949218-20.011718-19.960937-20.011718zm0 0"/><path d="m120.359375 205.148438c-11 0-19.960937 8.980468-19.960937 20.011718 0 11.039063 8.960937 20.019532 19.960937 20.019532 11.011719 0 19.960937-8.980469 19.960937-20.019532 0-11.03125-8.949218-20.011718-19.960937-20.011718zm0 0"/><path d="m166.160156 0h-91.589844c-41.121093 0-74.570312 33.449219-74.570312 74.570312v296.191407c0 41.117187 33.449219 74.566406 74.570312 74.566406h91.589844c41.109375 0 74.570313-33.449219 74.570313-74.566406v-296.191407c0-41.121093-33.460938-74.570312-74.570313-74.570312zm-45.800781 395.179688c-27.539063 0-49.960937-22.441407-49.960937-50.019532 0-27.570312 22.421874-50.011718 49.960937-50.011718 27.550781 0 49.960937 22.441406 49.960937 50.011718 0 27.578125-22.410156 50.019532-49.960937 50.019532zm0-120c-27.539063 0-49.960937-22.441407-49.960937-50.019532 0-27.570312 22.421874-50.011718 49.960937-50.011718 27.550781 0 49.960937 22.441406 49.960937 50.011718 0 27.578125-22.410156 50.019532-49.960937 50.019532zm0-122c-27.539063 0-49.960937-22.441407-49.960937-50.019532 0-27.570312 22.421874-50.011718 49.960937-50.011718 27.550781 0 49.960937 22.441406 49.960937 50.011718 0 27.578125-22.410156 50.019532-49.960937 50.019532zm0 0"/><path d="m390.289062 103.160156c0-8.28125-6.710937-15-15-15h-14.949218v30h14.949218c8.289063 0 15-6.710937 15-15zm0 0"/><path d="m390.289062 222.660156c0-8.28125-6.710937-15-15-15h-14.949218v30h14.949218c8.289063 0 15-6.710937 15-15zm0 0"/><path d="m375.289062 360.160156c8.289063 0 15-6.710937 15-15 0-8.28125-6.710937-15-15-15h-14.949218v30zm0 0"/></svg>