<svg height="512pt" viewBox="-56 0 512 512" width="512pt" xmlns="http://www.w3.org/2000/svg"><path d="m400 114.09375v-78.109375c0-19.84375-16.140625-35.984375-35.984375-35.984375h-38.09375c-19.839844 0-35.984375 16.140625-35.984375 35.984375v24.054687h-74.9375v-15c0-8.28125-6.714844-15-15-15s-15 6.71875-15 15v15h-74.9375v-24.054687c0-19.84375-16.140625-35.984375-35.984375-35.984375h-38.09375c-19.84375 0-35.984375 16.140625-35.984375 35.984375v78.109375c0 19.84375 16.140625 35.984375 35.984375 35.984375h38.09375c19.84375 0 35.984375-16.140625 35.984375-35.984375v-24.054688h74.9375v101.289063h-20.460938c-18.738281 0-33.984374 15.246094-33.984374 33.988281v121.945313c0 18.738281 15.246093 33.984375 33.984374 33.984375h20.460938v40.714844h-74.9375v-24.054688c0-19.84375-16.140625-35.984375-35.984375-35.984375h-38.09375c-19.84375 0-35.984375 16.140625-35.984375 35.984375v78.109375c0 19.84375 16.140625 35.984375 35.984375 35.984375h38.09375c19.84375 0 35.984375-16.140625 35.984375-35.984375v-24.054687h179.875v24.054687c0 19.84375 16.140625 35.984375 35.984375 35.984375h38.09375c19.84375 0 35.984375-16.140625 35.984375-35.984375v-78.109375c0-19.84375-16.140625-35.984375-35.984375-35.984375h-38.09375c-19.839844 0-35.984375 16.140625-35.984375 35.984375v24.054688h-74.9375v-40.714844h20.460938c18.738281 0 33.988281-15.246094 33.988281-33.984375v-121.949219c0-18.738281-15.25-33.984375-33.988281-33.984375h-20.460938v-101.289063h74.9375v24.058594c0 19.839844 16.140625 35.980469 35.984375 35.980469h38.09375c19.84375 0 35.984375-16.140625 35.984375-35.984375zm0 0"/><path d="m100.550781 240.664062c-24.875 0-45.113281 20.242188-45.113281 45.125 0 24.878907 20.238281 45.121094 45.113281 45.121094zm0 0"/><path d="m299.449219 330.910156c24.875 0 45.113281-20.242187 45.113281-45.125 0-24.878906-20.238281-45.121094-45.113281-45.121094zm0 0"/></svg>