<svg height="511pt" viewBox="-25 1 511 511.999" width="511pt" xmlns="http://www.w3.org/2000/svg"><path d="m460.5 221.253906c0-44.179687-28.726562-82.890625-70.390625-95.640625-1.320313-36.796875-31.515625-66.324219-68.445313-66.324219-9.746093 0-19.378906 2.09375-28.191406 6.097657-7.226562-14.238281-17.53125-30.910157-33.839844-43.707031-18.585937-14.589844-41.539062-21.679688-70.160156-21.679688-38.246094 0-70.109375 14.1875-92.144531 41.027344-18.355469 22.355468-28.785156 52.59375-29.574219 85.601562-18.585937 6.40625-35.199218 18.472656-47.121094 34.296875-13.171874 17.480469-20.132812 38.34375-20.132812 60.328125 0 53.820313 42.507812 97.847656 95.535156 99.902344v25.054688c0 8.273437 6.710938 14.984374 14.996094 14.984374 8.28125 0 14.996094-6.710937 14.996094-14.984374v-24.980469h29.65625v84.925781c0 8.277344 6.714844 14.984375 14.996094 14.984375s14.996093-6.710937 14.996093-14.984375v-84.925781h29.328125v24.980469c0 8.273437 6.710938 14.984374 14.996094 14.984374 8.28125 0 14.996094-6.710937 14.996094-14.984374v-24.980469h29.992187v84.925781c0 8.277344 6.710938 14.984375 14.996094 14.984375 8.28125 0 14.992187-6.710937 14.992187-14.984375v-84.925781h29.992188v24.980469c0 8.273437 6.714844 14.984374 14.996094 14.984374 8.285156 0 14.996094-6.710937 14.996094-14.984374v-25.054688c53.027343-2.046875 95.539062-46.078125 95.539062-99.902344zm0 0"/><path d="m170.679688 452.054688c-8.28125 0-14.996094 6.710937-14.996094 14.984374v29.972657c0 8.277343 6.714844 14.988281 14.996094 14.988281 8.285156 0 14.996093-6.710938 14.996093-14.988281v-29.972657c0-8.273437-6.710937-14.984374-14.996093-14.984374zm0 0"/><path d="m230 392.109375c-8.28125 0-14.996094 6.710937-14.996094 14.984375v89.917969c0 8.277343 6.714844 14.988281 14.996094 14.988281s14.996094-6.710938 14.996094-14.988281v-89.917969c0-8.273438-6.714844-14.984375-14.996094-14.984375zm0 0"/><path d="m289.984375 452.054688c-8.28125 0-14.996094 6.710937-14.996094 14.984374v29.972657c0 8.277343 6.714844 14.988281 14.996094 14.988281s14.996094-6.710938 14.996094-14.988281v-29.972657c0-8.273437-6.714844-14.984374-14.996094-14.984374zm0 0"/><path d="m111.03125 392.109375c-8.285156 0-14.996094 6.710937-14.996094 14.984375v59.945312c0 8.277344 6.710938 14.988282 14.996094 14.988282 8.28125 0 14.996094-6.710938 14.996094-14.988282v-59.945312c0-8.273438-6.714844-14.984375-14.996094-14.984375zm0 0"/><path d="m349.96875 392.109375c-8.28125 0-14.996094 6.710937-14.996094 14.984375v59.945312c0 8.277344 6.714844 14.988282 14.996094 14.988282s14.996094-6.710938 14.996094-14.988282v-59.945312c0-8.273438-6.714844-14.984375-14.996094-14.984375zm0 0"/></svg>