<svg height="512pt" viewBox="0 0 512 512" width="512pt" xmlns="http://www.w3.org/2000/svg"><path d="m62.636719 92.652344c18.941406-6.285156 32.640625-24.132813 32.640625-45.117188-.003906-26.210937-21.371094-47.535156-47.640625-47.535156-26.265625 0-47.636719 21.324219-47.636719 47.535156 0 20.980469 13.695312 38.832032 32.636719 45.117188v388.828125h-17.636719c-8.285156 0-15 6.71875-15 15 0 8.285156 6.714844 15 15 15h65.273438c8.285156 0 15-6.714844 15-15 0-8.28125-6.714844-15-15-15h-17.636719v-170.609375h74v-86.621094h-74v-30h74v-86.609375h-74zm0 0"/><path d="m497 482h-17.636719v-388.828125c18.941407-6.285156 32.636719-24.136719 32.636719-45.121094 0-26.207031-21.371094-48.050781-47.636719-48.050781-26.269531 0-47.640625 21.84375-47.640625 48.050781 0 20.984375 13.699219 38.835938 32.640625 45.121094v14.46875h-73.996093v86.609375h73.996093v30h-73.996093v86.621094h73.996093v171.128906h-17.640625c-8.28125 0-15 6.714844-15 15s6.71875 15 15 15h65.277344c8.285156 0 15-6.714844 15-15s-6.714844-15-15-15zm0 0"/><path d="m271.117188 107.640625h74.25v86.609375h-74.25zm0 0"/><path d="m271.117188 224.25h74.25v86.621094h-74.25zm0 0"/><path d="m166.636719 107.640625h74.480469v86.609375h-74.480469zm0 0"/><path d="m166.636719 224.25h74.480469v86.621094h-74.480469zm0 0"/></svg>