<svg height="512pt" viewBox="0 -3 512 512" width="512pt" xmlns="http://www.w3.org/2000/svg"><path d="m486.324219 47.617188-85.371094-42.6875c-12.757813-6.378907-27.484375-6.578126-40.414063-.542969l-97.582031 45.539062c-4.421875 2.0625-9.492187 2.0625-13.914062 0l-97.585938-45.539062c-12.925781-6.035157-27.65625-5.835938-40.414062.542969l-85.367188 42.6875c-15.835937 7.917968-25.675781 23.835937-25.675781 41.542968v353.507813c0 16.214843 8.234375 30.988281 22.027344 39.511719 13.792968 8.523437 30.6875 9.285156 45.191406 2.03125l57.242188-28.621094c4.519531-2.257813 9.734374-2.328125 14.3125-.191406l97.585937 45.539062c6.238281 2.914062 12.941406 4.371094 19.640625 4.371094s13.398438-1.457032 19.640625-4.371094l97.585937-45.539062c4.578126-2.136719 9.792969-2.066407 14.3125.191406l57.242188 28.621094c14.503906 7.253906 31.398438 6.492187 45.191406-2.03125 13.792969-8.523438 22.027344-23.296876 22.027344-39.511719v-353.507813c0-17.707031-9.839844-33.625-25.675781-41.542968zm-76.496094 268.761718c0 26.375-21.457031 47.835938-47.835937 47.835938h-252.578126c-8.285156 0-15-6.71875-15-15 0-8.285156 6.714844-15 15-15h252.578126c9.835937 0 17.835937-8 17.835937-17.835938v-24.332031c0-9.832031-8-17.832031-17.835937-17.832031h-217.578126c-27.570312 0-50-22.429688-50-50v-19.789063c0-27.570312 22.429688-50 50-50h144.265626c8.28125 0 15 6.71875 15 15 0 8.285157-6.71875 15-15 15h-144.265626c-11.027343 0-20 8.972657-20 20v19.789063c0 11.027344 8.972657 20 20 20h217.578126c26.375 0 47.835937 21.457031 47.835937 47.832031zm15.105469-128.058594c5.855468 5.859376 5.855468 15.355469 0 21.214844-2.929688 2.929688-6.769532 4.394532-10.605469 4.394532-3.839844 0-7.679687-1.464844-10.605469-4.394532l-18.894531-18.894531-18.894531 18.894531c-2.925782 2.929688-6.765625 4.394532-10.605469 4.394532-3.835937 0-7.675781-1.464844-10.605469-4.394532-5.859375-5.859375-5.859375-15.355468 0-21.214844l18.894532-18.890624-18.894532-18.894532c-5.859375-5.859375-5.859375-15.355468 0-21.210937 5.855469-5.859375 15.355469-5.859375 21.214844 0l18.890625 18.890625 18.894531-18.890625c5.855469-5.859375 15.355469-5.859375 21.210938 0 5.859375 5.855469 5.859375 15.351562 0 21.210937l-18.890625 18.894532zm0 0"/></svg>