<svg height="512pt" viewBox="0 0 512 512" width="512pt" xmlns="http://www.w3.org/2000/svg"><path d="m499.898438 142.046875c7.804687-7.804687 12.101562-18.175781 12.101562-29.210937 0-11.035157-4.296875-21.410157-12.101562-29.214844l-71.519532-71.519532c-7.800781-7.804687-18.175781-12.101562-29.210937-12.101562-11.035157 0-21.410157 4.296875-29.214844 12.101562l-42.585937 42.585938 129.945312 129.945312zm0 0"/><path d="m54.6875 184.632812 129.949219-129.945312-42.589844-42.589844c-16.105469-16.105468-42.316406-16.105468-58.425781.003906l-71.523438 71.519532c-16.105468 16.109375-16.105468 42.316406 0 58.425781zm0 0"/><path d="m457.316406 327.363281-129.949218 129.949219 42.585937 42.585938c7.804687 7.804687 18.179687 12.101562 29.214844 12.101562 11.035156 0 21.40625-4.296875 29.210937-12.101562l71.523438-71.519532c16.105468-16.109375 16.105468-42.316406 0-58.425781zm0 0"/><path d="m12.101562 369.953125c-7.804687 7.800781-12.101562 18.175781-12.101562 29.210937 0 11.035157 4.296875 21.410157 12.101562 29.214844l71.519532 71.519532c7.804687 7.804687 18.179687 12.101562 29.214844 12.101562 11.035156 0 21.410156-4.296875 29.210937-12.101562l42.589844-42.585938-129.949219-129.945312zm0 0"/><path d="m391.414062 301.980469c-2.09375-.46875-4.003906-1.519531-5.523437-3.039063l-34.941406-34.941406c-2.136719-2.136719-3.3125-4.976562-3.3125-8s1.175781-5.863281 3.3125-8l34.941406-34.9375c1.519531-1.523438 3.429687-2.574219 5.527344-3.042969l39.914062-8.945312-120.40625-120.402344-8.945312 39.910156c-.46875 2.097657-1.519531 4.007813-3.039063 5.527344l-34.941406 34.941406c-2.136719 2.136719-4.976562 3.3125-8 3.3125-3.019531 0-5.859375-1.179687-7.996094-3.3125l-34.945312-34.941406c-1.519532-1.519531-2.570313-3.429687-3.039063-5.527344l-8.941406-39.910156-120.40625 120.402344 39.910156 8.945312c2.097657.46875 4.007813 1.523438 5.527344 3.039063l34.941406 34.945312c2.136719 2.132813 3.3125 4.976563 3.3125 7.996094 0 3.023438-1.179687 5.863281-3.3125 8l-34.941406 34.941406c-1.519531 1.519532-3.429687 2.570313-5.527344 3.039063l-39.910156 8.945312 120.402344 120.402344 8.945312-39.910156c.46875-2.097657 1.523438-4.007813 3.039063-5.523438l34.945312-34.941406c2.132813-2.136719 4.976563-3.3125 7.996094-3.3125 3.023438 0 5.863281 1.175781 8 3.3125l34.941406 34.941406c1.519532 1.515625 2.570313 3.429688 3.039063 5.523438l8.945312 39.910156 120.402344-120.402344zm0 0"/></svg>