<svg height="512pt" viewBox="-51 0 512 512" width="512pt" xmlns="http://www.w3.org/2000/svg"><path d="m120.203125 90.28125h170.214844v63.96875h-170.214844zm0 0"/><path d="m380.574219 263h-350.527344v159.109375h350.527344zm-249.875 110.800781c0 8.277344-6.730469 15-15.023438 15s-15.023437-6.722656-15.023437-15v-58.8125c0-8.289062 6.730468-15 15.023437-15s15.023438 6.710938 15.023438 15zm60.089843 0c0 8.277344-6.730468 15-15.023437 15s-15.023437-6.722656-15.023437-15v-58.8125c0-8.289062 6.730468-15 15.023437-15s15.023437 6.710938 15.023437 15zm60.089844 0c0 8.277344-6.730468 15-15.023437 15s-15.023438-6.722656-15.023438-15v-58.8125c0-8.289062 6.730469-15 15.023438-15s15.023437 6.710938 15.023437 15zm60.089844 0c0 8.277344-6.730469 15-15.023438 15-8.292968 0-15.019531-6.722656-15.019531-15v-58.8125c0-8.289062 6.726563-15 15.019531-15 8.292969 0 15.023438 6.710938 15.023438 15zm0 0"/><path d="m401.40625 460.988281c-4.925781-5-11.578125-8.277343-18.988281-8.878906h-354.886719c-15.421875 1.269531-27.53125 14.171875-27.53125 29.890625 0 8.28125 3.363281 15.78125 8.804688 21.210938 5.4375 5.429687 12.949218 8.789062 21.242187 8.789062h349.90625c16.597656 0 30.046875-13.429688 30.046875-30 0-8.179688-3.285156-15.601562-8.59375-21.011719zm0 0"/><path d="m380.574219 71.640625c0-39.5-32.1875-71.640625-71.746094-71.640625h-207.035156c-39.558594 0-71.746094 32.140625-71.746094 71.640625v161.359375h350.527344zm-60.109375 96.5c0 8.878906-7.242188 16.109375-16.132813 16.109375h-198.042969c-8.890624 0-16.132812-7.230469-16.132812-16.109375v-91.742187c0-8.886719 7.242188-16.117188 16.132812-16.117188h198.042969c8.890625 0 16.132813 7.230469 16.132813 16.117188zm0 0"/></svg>