<svg height="512pt" viewBox="0 -38 512.00111 512" width="512pt" xmlns="http://www.w3.org/2000/svg"><path d="m251.066406 13.84375c-12.9375-5.699219-26.398437-9.664062-40.230468-11.855469v326.4375c13.851562-2.195312 27.332031-6.167969 40.296874-11.886719 14.457032-6.378906 23.796876-20.695312 23.796876-36.472656v-229.722656c0-15.785156-9.367188-30.113281-23.863282-36.5zm0 0"/><path d="m244.835938 374.625h-113.960938v-52.589844c16.445312 5.101563 33.316406 7.976563 49.964844 8.375v-330.410156c-48.433594 1.140625-98.152344 22.925781-133.730469 58.765625-30.617187 30.835937-47.328125 69.058594-47.0585938 107.628906.3046878 42.847657 21.2929688 84.113281 59.1015628 116.191407 12.796875 10.859374 26.890625 20.070312 41.726562 27.429687v64.613281h-70.785156c-16.621094-.003906-30.09375 13.511719-30.09375 30.183594s13.472656 30.1875 30.09375 30.1875h214.742188c16.621093 0 30.09375-13.515625 30.09375-30.1875s-13.472657-30.1875-30.09375-30.1875zm0 0"/><path d="m322.691406 105.75c1.113282 0 2.246094-.125 3.378906-.386719l174.292969-40.117187c8.070313-1.859375 13.109375-9.910156 11.253907-17.984375-1.859376-8.074219-9.910157-13.113281-17.980469-11.257813l-174.296875 40.121094c-8.070313 1.859375-13.109375 9.910156-11.25 17.984375 1.59375 6.941406 7.769531 11.640625 14.601562 11.640625zm0 0"/><path d="m493.632812 96.183594-174.292968 40.117187c-8.070313 1.859375-13.109375 9.910157-11.253906 17.984375 1.597656 6.941406 7.773437 11.640625 14.605468 11.640625 1.113282 0 2.246094-.125 3.375-.386719l174.296875-40.117187c8.070313-1.855469 13.109375-9.910156 11.25-17.984375-1.855469-8.074219-9.910156-13.109375-17.980469-11.253906zm0 0"/><path d="m493.632812 156.847656-174.292968 40.117188c-8.070313 1.859375-13.109375 9.910156-11.253906 17.984375 1.597656 6.941406 7.773437 11.640625 14.605468 11.640625 1.113282 0 2.246094-.125 3.375-.386719l174.296875-40.117187c8.070313-1.855469 13.109375-9.910157 11.25-17.984376-1.855469-8.074218-9.910156-13.109374-17.980469-11.253906zm0 0"/><path d="m493.632812 217.023438-174.292968 40.121093c-8.070313 1.855469-13.109375 9.90625-11.253906 17.980469 1.597656 6.945312 7.773437 11.640625 14.605468 11.640625 1.113282 0 2.246094-.125 3.375-.382813l174.296875-40.117187c8.070313-1.859375 13.109375-9.910156 11.25-17.984375-1.855469-8.074219-9.910156-13.113281-17.980469-11.257812zm0 0"/></svg>