<svg height="512pt" viewBox="0 -57 512 512" width="512pt" xmlns="http://www.w3.org/2000/svg"><path d="m450.441406 0v44.292969c0 8.285156-6.71875 15-15 15-8.285156 0-15-6.714844-15-15v-44.292969c-35.058594 6.992188-61.5625 38-61.5625 75.085938v108.890624h-39.9375v-16.554687c0-11.160156-9.082031-20.238281-20.242187-20.238281h-85.398438c-11.160156 0-20.242187 9.078125-20.242187 20.238281v16.554687h-39.9375v-108.890624c0-37.082032-26.5-68.09375-61.558594-75.085938v44.292969c0 8.285156-6.71875 15-15 15-8.285156 0-15-6.714844-15-15v-44.292969c-35.058594 6.992188-61.5625 38.003906-61.5625 75.085938v247.777343c0 37.085938 26.503906 68.09375 61.5625 75.085938v-44.449219c0-8.285156 6.714844-15 15-15 8.28125 0 15 6.714844 15 15v44.449219c35.058594-6.992188 61.558594-38 61.558594-75.085938v-108.886719h39.9375v16.394532c0 11.160156 9.082031 20.238281 20.242187 20.238281h85.398438c11.160156 0 20.242187-9.078125 20.242187-20.238281v-16.394532h39.9375v108.886719c0 37.085938 26.503906 68.09375 61.5625 75.085938v-44.449219c0-8.285156 6.714844-15 15-15 8.28125 0 15 6.714844 15 15v44.449219c35.054688-6.992188 61.558594-38 61.558594-75.082031v-247.78125c0-37.082032-26.5-68.09375-61.558594-75.085938zm-358.878906 291.65625c0 8.285156-6.71875 15-15 15-8.285156 0-15-6.714844-15-15v-61.839844c0-8.285156 6.714844-15 15-15 8.28125 0 15 6.714844 15 15zm0-123.679688c0 8.285157-6.71875 15-15 15-8.285156 0-15-6.714843-15-15v-61.839843c0-8.285157 6.714844-15 15-15 8.28125 0 15 6.714843 15 15zm358.878906 123.679688c0 8.285156-6.71875 15-15 15-8.285156 0-15-6.714844-15-15v-61.839844c0-8.285156 6.714844-15 15-15 8.28125 0 15 6.714844 15 15zm0-123.679688c0 8.285157-6.71875 15-15 15-8.285156 0-15-6.714843-15-15v-61.839843c0-8.285157 6.714844-15 15-15 8.28125 0 15 6.714843 15 15zm0 0"/></svg>