<svg height="512pt" viewBox="0 0 512 512" width="512pt" xmlns="http://www.w3.org/2000/svg"><path d="m122.46875 371.890625c-9.699219 0-17.589844 7.890625-17.589844 17.589844s7.890625 17.597656 17.589844 17.597656c9.703125 0 17.601562-7.898437 17.601562-17.597656s-7.898437-17.589844-17.601562-17.589844zm0 0"/><path d="m511.921875 166.738281c0-42.699219-16.25-85.398437-48.761719-117.898437-31.5-31.5-73.378906-48.839844-117.921875-48.839844-44.539062 0-86.417969 17.339844-117.910156 48.839844l-200.769531 264.390625c-17.707032 22.238281-26.558594 49.25-26.558594 76.257812 0 31.382813 11.941406 62.75 35.828125 86.632813 23.882813 23.878906 55.261719 35.820312 86.640625 35.820312.710938 0 1.421875-.011718 2.132812-.019531v.078125h313.867188v-.050781c40.089844-.96875 72.511719-33.378907 73.480469-73.46875h.050781v-271.742188zm-60.300781-.207031.007812.207031c0 18.691407-4.929687 37.082031-14.238281 53.191407-2.78125 4.800781-7.820313 7.492187-13.011719 7.492187-2.550781 0-5.128906-.652344-7.5-2.023437-7.167968-4.148438-9.628906-13.328126-5.480468-20.5 6.679687-11.539063 10.210937-24.738282 10.210937-38.160157v-.207031c0-8.292969 6.71875-15.011719 15.011719-15.011719 8.277344 0 15 6.71875 15 15.011719zm-73.839844-86.511719c4.140625-7.179687 13.308594-9.648437 20.5-5.507812 16.140625 9.296875 29.617188 22.726562 38.988281 38.828125 4.160157 7.171875 1.730469 16.351562-5.429687 20.519531-2.378906 1.378906-4.96875 2.039063-7.53125 2.039063-5.179688 0-10.207032-2.679688-12.988282-7.46875-6.730468-11.578126-16.429687-21.230469-28.03125-27.910157-7.179687-4.140625-9.648437-13.308593-5.507812-20.5zm-80.152344 86.71875c0-26.25 21.359375-47.609375 47.609375-47.609375 26.261719 0 47.621094 21.359375 47.621094 47.609375s-21.359375 47.613281-47.621094 47.613281c-26.25 0-47.609375-21.363281-47.609375-47.613281zm14.980469 86.671875c-2.78125 4.820313-7.828125 7.511719-13.019531 7.511719-2.539063 0-5.121094-.652344-7.488282-2.023437-16.132812-9.308594-29.601562-22.757813-38.953124-38.867188-4.148438-7.171875-1.707032-16.359375 5.460937-20.511719 7.171875-4.160156 16.359375-1.71875 20.511719 5.449219 6.71875 11.582031 16.398437 21.242188 28 27.941406 7.167968 4.148438 9.628906 13.328125 5.488281 20.5zm32.679687-10.320312c13.421876-.011719 26.621094-3.539063 38.152344-10.21875 7.179688-4.152344 16.359375-1.710938 20.507813 5.46875 4.160156 7.171875 1.710937 16.351562-5.460938 20.5-16.097656 9.332031-34.488281 14.261718-53.1875 14.269531 0 0 0 0-.011719 0-8.277343 0-15-6.71875-15.007812-15 0-8.289063 6.71875-15.007813 15.007812-15.019531zm-53.398437-168.398438c16.089844-9.339844 34.46875-14.292968 53.167969-14.320312h.019531c8.28125 0 15 6.699218 15.011719 14.980468.019531 8.289063-6.691406 15.019532-14.980469 15.027344-13.417969.03125-26.609375 3.582032-38.140625 10.269532-2.378906 1.382812-4.96875 2.03125-7.527344 2.03125-5.171875 0-10.210937-2.679688-12.992187-7.46875-4.160157-7.171876-1.730469-16.359376 5.441406-20.519532zm-53.03125 92.046875c0-18.648437 4.902344-37.007812 14.171875-53.078125 4.148438-7.179687 13.320312-9.648437 20.507812-5.5 7.179688 4.140625 9.640626 13.320313 5.5 20.488282-6.648437 11.523437-10.160156 24.691406-10.160156 38.089843v.101563c0 8.289062-6.71875 15.011718-15.007812 15.011718-8.292969 0-15.011719-6.722656-15.011719-15.011718zm-116.390625 270.351563c-26.25 0-47.609375-21.359375-47.609375-47.609375s21.359375-47.609375 47.609375-47.609375c26.261719 0 47.621094 21.359375 47.621094 47.609375s-21.359375 47.609375-47.621094 47.609375zm329.152344 4.539062c0 8.292969-6.722656 15.011719-15 15.011719-8.292969 0-15.011719-6.71875-15.011719-15.011719v-10.007812c0-8.292969 6.71875-15.011719 15.011719-15.011719 8.277344 0 15 6.71875 15 15.011719zm30.359375-65.160156c-12.628907-9.546875-28.351563-15.21875-45.359375-15.21875-41.570313 0-75.390625 33.808594-75.390625 75.371094 0 17.019531 5.679687 32.730468 15.21875 45.359375h-173.640625c2.152344-1.871094 4.261718-3.820313 6.3125-5.859375 47.769531-47.78125 47.769531-125.5 0-173.269532-30.351563-30.351562-72.78125-41.410156-111.949219-33.203124l81.46875-107.699219c-1.261719 44.28125 14.960937 88.972656 48.6875 122.691406 31.492187 31.488281 73.371094 48.839844 117.910156 48.839844 44.542969 0 86.421875-17.351563 117.921875-48.839844 7.03125-7.039063 13.308594-14.550781 18.820313-22.441406zm0 0"/><path d="m362.839844 166.738281c0-9.699219-7.890625-17.597656-17.601563-17.597656-9.699219 0-17.589843 7.898437-17.589843 17.597656 0 9.703125 7.890624 17.589844 17.589843 17.589844 9.710938 0 17.601563-7.886719 17.601563-17.589844zm0 0"/></svg>