<svg height="512pt" viewBox="0 0 512 512" width="512pt" xmlns="http://www.w3.org/2000/svg"><path d="m482.078125 452.027344h-452.15625c-16.523437 0-29.921875 13.398437-29.921875 29.925781v.125c0 16.523437 13.398438 29.921875 29.921875 29.921875h452.152344c16.527343 0 29.925781-13.398438 29.925781-29.921875v-.125c0-16.527344-13.398438-29.925781-29.921875-29.925781zm0 0"/><path d="m482.078125 127.15625h-18.011719v-56.007812c0-21.53125-17.515625-39.050782-39.046875-39.050782h-.09375c-21.535156 0-39.050781 17.519532-39.050781 39.050782v56.007812h-19.664062v-78.53125c0-26.8125-21.8125-48.625-48.625-48.625h-123.097657c-26.8125 0-48.625 21.8125-48.625 48.625v78.53125h-19.660156v-56.007812c0-21.53125-17.519531-39.050782-39.050781-39.050782h-.09375c-21.53125 0-39.046875 17.519532-39.046875 39.050782v56.007812h-18.089844c-16.523437 0-29.921875 13.398438-29.921875 29.925781v.125c0 16.523438 13.398438 29.921875 29.921875 29.921875h452.152344c16.527343 0 29.925781-13.398437 29.925781-29.921875v-.125c0-16.527343-13.398438-29.925781-29.921875-29.925781zm-306.214844-78.53125c0-10.269531 8.355469-18.625 18.625-18.625h123.097657c10.269531 0 18.625 8.355469 18.625 18.625v78.53125h-160.347657zm0 0"/><path d="m41.007812 217.128906v204.898438h430.0625v-204.898438zm125.019532 118.949219h-50.007813c-8.285156 0-15.003906-6.714844-15.003906-15 0-8.28125 6.71875-15 15.003906-15h50.007813c8.285156 0 15 6.71875 15 15 0 8.285156-6.714844 15-15 15zm132.4375 9.273437-29.308594 53.886719c-2.71875 5-7.875 7.835938-13.191406 7.835938-2.425782 0-4.878906-.585938-7.15625-1.824219-7.277344-3.957031-9.96875-13.066406-6.011719-20.34375l26.554687-48.828125h-32.511718c-9.472656 0-18.011719-4.855469-22.851563-12.996094-4.835937-8.136719-5.023437-17.960937-.5-26.277343l29.308594-53.886719c3.957031-7.277344 13.066406-9.964844 20.34375-6.011719 7.28125 3.957031 9.972656 13.066406 6.015625 20.34375l-26.558594 48.828125h32.515625c9.464844 0 18.007813 4.859375 22.847657 12.996094 4.839843 8.136719 5.027343 17.960937.503906 26.277343zm97.117187-9.273437h-10v10c0 8.285156-6.71875 15-15.003906 15s-15-6.714844-15-15v-10h-10.003906c-8.285157 0-15-6.714844-15-15 0-8.28125 6.714843-15 15-15h10.003906v-10c0-8.28125 6.714844-15 15-15s15.003906 6.71875 15.003906 15v10h10c8.285157 0 15.003907 6.71875 15.003907 15 0 8.285156-6.71875 15-15.003907 15zm0 0"/></svg>