<svg height="512pt" viewBox="0 0 512.00001 512" width="512pt" xmlns="http://www.w3.org/2000/svg"><path d="m213.410156 120.941406-53.109375-103.160156c-5.648437-10.972656-16.820312-17.78125-29.148437-17.78125h-57.898438l73.476563 146.671875c20.300781-12.109375 42.769531-20.929687 66.679687-25.730469zm0 0"/><path d="m121.863281 163.992188-82.15625-163.992188h-6.890625c-11.519531 0-21.980468 5.871094-27.988281 15.710938-6 9.839843-6.429687 21.839843-1.160156 32.089843l80.207031 155.890625c10.910156-14.808594 23.6875-28.160156 37.988281-39.699218zm0 0"/><path d="m438.738281 0h-57.886719c-12.339843 0-23.5 6.808594-29.148437 17.78125l-53.199219 103.339844c23.859375 4.917968 46.289063 13.828125 66.527344 26.019531zm0 0"/><path d="m507.164062 15.710938c-5.996093-9.839844-16.457031-15.710938-27.988281-15.710938h-6.878906l-82.457031 164.589844c14.269531 11.609375 27.007812 25.042968 37.867187 39.921875l80.617188-156.710938c5.28125-10.25 4.851562-22.25-1.160157-32.089843zm0 0"/><path d="m255.894531 147.941406c-100.332031 0-181.957031 81.660156-181.957031 182.03125 0 100.367188 81.625 182.027344 181.957031 182.027344s181.957031-81.65625 181.957031-182.027344-81.625-182.03125-181.957031-182.03125zm-.410156 321.78125c-77.027344 0-139.695313-62.691406-139.695313-139.75 0-77.0625 62.667969-139.753906 139.695313-139.753906 77.03125 0 139.699219 62.691406 139.699219 139.753906 0 77.058594-62.667969 139.75-139.699219 139.75zm0 0"/><path d="m255.484375 220.21875c-60.488281 0-109.699219 49.234375-109.699219 109.753906 0 60.515625 49.210938 109.753906 109.699219 109.753906 60.492187 0 109.703125-49.238281 109.703125-109.753906 0-60.519531-49.210938-109.753906-109.703125-109.753906zm-34.996094 139.605469c0 8.285156-6.714843 15-15 15-8.285156 0-15-6.714844-15-15v-59.707031c0-8.28125 6.71875-15 15-15 8.285157 0 15 6.71875 15 15zm49.996094 0c0 8.285156-6.714844 15-14.996094 15-8.285156 0-15-6.714844-15-15v-59.707031c0-8.28125 6.714844-15 15-15 8.28125 0 14.996094 6.71875 14.996094 15zm50 0c0 8.285156-6.714844 15-15 15s-15-6.714844-15-15v-59.707031c0-8.28125 6.714844-15 15-15s15 6.71875 15 15zm0 0"/></svg>