<svg height="512pt" viewBox="-130 0 512 512" width="512pt" xmlns="http://www.w3.org/2000/svg"><path d="m236 164.910156c8.28125 0 15-6.710937 15-15 0-8.28125-6.71875-15-15-15h-25.761719v-29.789062h25.761719c8.28125 0 15-6.722656 15-15 0-8.292969-6.71875-15-15-15h-27c-7.121094-42.582032-44.011719-75.121094-88.320312-75.121094-49.351563 0-89.53125 40.398438-89.558594 90.050781l-.152344 215.980469c-.007812 2.046875-.699219 3.988281-1.949219 5.457031-18.710937 21.980469-29.019531 50.042969-29.019531 79.023438 0 32.226562 12.398438 62.578125 34.929688 85.476562 22.539062 22.910157 52.589843 35.703125 84.609374 36 .390626.011719.78125.011719 1.160157.011719 31.601562 0 61.480469-12.300781 84.269531-34.710938 23.269531-22.878906 36.210938-53.378906 36.441406-85.890624.210938-29.457032-10.191406-57.949219-29.289062-80.226563-1.210938-1.410156-1.871094-3.320313-1.871094-5.382813v-21.007812h25.75c8.28125 0 15-6.710938 15-15 0-8.28125-6.71875-15-15-15h-25.75v-29.800781h25.75c8.28125 0 15-6.710938 15-15 0-8.28125-6.71875-15-15-15h-25.75v-30.070313zm-115.289062 290.070313c-35.019532 0-63.511719-28.652344-63.511719-63.859375 0-30.019532 20.699219-55.269532 48.511719-62.070313v-239.210937c0-8.28125 6.710937-15 15-15 8.277343 0 15 6.71875 15 15v239.210937c27.800781 6.800781 48.5 32.050781 48.5 62.070313 0 35.207031-28.492188 63.859375-63.5 63.859375zm0-97.730469c-18.480469 0-33.511719 15.191406-33.511719 33.871094 0 18.667968 15.03125 33.859375 33.511719 33.859375 18.46875 0 33.5-15.191407 33.5-33.859375 0-18.679688-15.03125-33.871094-33.5-33.871094zm0 0"/></svg>