<svg height="512pt" viewBox="0 0 512 512" width="512pt" xmlns="http://www.w3.org/2000/svg"><path d="m256.390625 100.25c-33.320313 0-60.421875 27.101562-60.421875 60.421875 0 33.308594 27.101562 60.40625 60.421875 60.40625 33.308594 0 60.417969-27.097656 60.417969-60.40625 0-33.320313-27.109375-60.421875-60.417969-60.421875zm15 82.921875c0 8.277344-6.71875 15-15 15-8.289063 0-15-6.722656-15-15v-45.011719c0-8.28125 6.710937-15 15-15 8.28125 0 15 6.71875 15 15zm0 0"/><path d="m468.097656 0h-424.195312c-24.207032 0-43.902344 19.695312-43.902344 43.902344v92.199218c0 46.21875 37.601562 83.820313 83.816406 83.820313h16.25c5.1875 14.726563 12.476563 28.722656 21.671875 41.488281 16.242188 22.550782 38.0625 40.730469 63.082031 52.589844 6.121094 2.898438 10.078126 9.140625 10.078126 16-15.988282.007812-31.007813 6.210938-42.320313 17.46875-10.21875 10.175781-16.308594 23.394531-17.445313 37.644531-17.292968 6.160157-29.707031 22.695313-29.707031 42.078125v25.351563h301.917969v-25.351563c0-19.722656-12.855469-36.5-30.625-42.390625-1.199219-14.132812-7.28125-27.230469-17.417969-37.332031-11.320312-11.269531-26.351562-17.46875-42.359375-17.46875 0-3.398438.988282-6.679688 2.75-9.460938 1.757813-2.789062 4.289063-5.078124 7.359375-6.539062 25.027344-11.859375 46.839844-30.039062 63.089844-52.589844 9.195313-12.761718 16.484375-26.757812 21.667969-41.488281h16.375c46.214844 0 83.816406-37.601563 83.816406-83.816406v-92.203125c0-24.207032-19.695312-43.902344-43.902344-43.902344zm-384.28125 189.921875c-29.671875 0-53.816406-24.144531-53.816406-53.816406v-92.203125c0-7.664063 6.238281-13.902344 13.902344-13.902344h30.8125l17.113281 154.078125c.222656 1.953125.480469 3.902344.769531 5.84375zm172.574219 61.15625c-49.859375 0-90.421875-40.558594-90.421875-90.40625 0-49.863281 40.5625-90.421875 90.421875-90.421875 49.847656 0 90.417969 40.558594 90.417969 90.421875 0 49.847656-40.570313 90.40625-90.417969 90.40625zm225.609375-114.972656c0 29.675781-24.144531 53.816406-53.816406 53.816406h-8.90625c.292968-1.949219.550781-3.910156.773437-5.871094l17.117188-154.050781h30.929687c7.664063 0 13.902344 6.238281 13.902344 13.902344zm0 0"/><path d="m422.34375 482h-331.917969c-8.28125 0-15 6.714844-15 15s6.71875 15 15 15h331.917969c8.285156 0 15-6.714844 15-15s-6.714844-15-15-15zm0 0"/></svg>