<svg height="512pt" viewBox="0 -63 512.00043 512" width="512pt" xmlns="http://www.w3.org/2000/svg"><path d="m51.816406 338.128906c6.695313 12.992188 11.941406 23.15625 13.527344 26.023438 7.089844 12.839844 20.367188 20.824218 34.660156 20.84375l372.355469.058594c10.582031 0 20.535156-4.125 28.019531-11.609376 7.492188-7.488281 11.621094-17.457031 11.621094-28.058593v-7.253907h-460.183594zm0 0"/><path d="m97.722656 180.5625c-14.3125 0-25.957031 11.644531-25.957031 25.957031s11.644531 25.957031 25.957031 25.957031 25.957032-11.644531 25.957032-25.957031-11.644532-25.957031-25.957032-25.957031zm0 0"/><path d="m512 283.710938c0-3.929688-.703125-7.332032-1.351562-10.210938-.214844-.941406-.550782-2.199219-.949219-3.574219l-244.6875 24.480469c-41.929688 2.988281-77.589844-30.222656-77.589844-72.257812v-22.886719c0-41.207031 26.90625-77.582031 66.308594-89.644531l135.9375-41.617188c-8.828125-7.304688-20.347657-15.953125-34.316407-24.59375-57.839843-35.777344-112.175781-43.3359375-147.628906-43.3671875-8.292968-.2109375-140.078125-2.0781245-187.261718 79.7812495-32.054688 55.59375-26.414063 132.34375 16.699218 228.304688h474.839844zm-414.277344-21.230469c-30.855468 0-55.960937-25.105469-55.960937-55.960938s25.105469-55.960937 55.960937-55.960937c30.855469 0 55.960938 25.105468 55.960938 55.960937s-25.105469 55.960938-55.960938 55.960938zm0 0"/><path d="m218.074219 197.101562v26.972657c0 12.652343 5.417969 24.734375 14.871093 33.144531 8.160157 7.261719 18.691407 11.222656 29.503907 11.222656 1.707031 0 3.429687-.101562 5.140625-.300781l229.003906-26.785156c1.0625-.121094 2.101562-.347657 3.101562-.660157 4.820313-1.488281 8.832032-5.039062 10.863282-9.761718 2.257812-5.269532 1.769531-11.320313-1.25-16.128906l-64.167969-114.113282c-4.589844-8.171875-14.113281-12.132812-23.144531-9.621094l-6.488282 1.796876-149.769531 41.546874c-28.0625 7.78125-47.664062 33.5625-47.664062 62.6875zm0 0"/></svg>