<svg height="512pt" viewBox="0 0 512 512" width="512pt" xmlns="http://www.w3.org/2000/svg"><path d="m91.78125 116.75h119.21875v-29.078125h-83.351562c-17.609376 0-32.367188 12.5-35.867188 29.078125zm0 0"/><path d="m417.53125 216.921875h-323.070312c-1.910157 0-3.460938 1.546875-3.460938 3.457031v291.621094h330v-291.621094c0-1.910156-1.558594-3.457031-3.46875-3.457031zm-129.058594 261.953125h-64.949218c-8.285157 0-15-6.714844-15-15 0-8.28125 6.714843-15 15-15h64.949218c8.28125 0 15 6.71875 15 15 0 8.285156-6.71875 15-15 15zm59.300782-66.832031h-183.550782c-8.285156 0-15-6.714844-15-15 0-8.285157 6.714844-15 15-15h183.550782c8.285156 0 15 6.714843 15 15 0 8.285156-6.714844 15-15 15zm0-60h-183.550782c-8.285156 0-15-6.714844-15-15 0-8.285157 6.714844-15 15-15h183.550782c8.285156 0 15 6.714843 15 15 0 8.285156-6.714844 15-15 15zm0-60h-183.550782c-8.285156 0-15-6.714844-15-15 0-8.285157 6.714844-15 15-15h183.550782c8.285156 0 15 6.714843 15 15 0 8.285156-6.714844 15-15 15zm0 0"/><path d="m384.339844 87.671875h-83.339844v29.078125h119.210938c-3.5-16.589844-18.25-29.078125-35.871094-29.078125zm0 0"/><path d="m471.398438 38.730469c-25.847657-24.980469-60.4375-38.730469-97.386719-38.730469h-236.03125c-36.949219 0-71.539063 13.75-97.390625 38.730469-26.179688 25.300781-40.589844 59.480469-40.589844 96.25v335.800781c0 22.730469 18.488281 41.21875 41.21875 41.21875h19.78125v-291.621094c0-18.449218 15.011719-33.457031 33.460938-33.457031h323.070312c18.449219 0 33.46875 15.007813 33.46875 33.457031v291.621094h19.78125c22.730469 0 41.21875-18.488281 41.21875-41.21875v-335.800781c0-36.769531-14.421875-70.949219-40.601562-96.25zm-230.398438 85.597656c0 12.363281-10.058594 22.421875-22.429688 22.421875h-135.148437c-12.363281 0-22.421875-10.058594-22.421875-22.421875 0-36.757813 29.898438-66.65625 66.648438-66.65625h90.921874c12.371094 0 22.429688 10.058594 22.429688 22.429687zm187.570312 22.421875h-135.148437c-12.363281 0-22.421875-10.058594-22.421875-22.421875v-44.226563c0-12.371093 10.058594-22.429687 22.421875-22.429687h90.917969c36.75 0 66.660156 29.898437 66.660156 66.65625 0 12.363281-10.058594 22.421875-22.429688 22.421875zm0 0"/></svg>