<svg height="512pt" viewBox="0 0 512 512" width="512pt" xmlns="http://www.w3.org/2000/svg"><path d="m86.804688 256.019531 169.195312 169.207031 169.195312-169.207031-169.195312-169.207031zm186.507812-97.847656 35.148438 34.179687c5.9375 5.777344 6.070312 15.273438.296874 21.210938-2.941406 3.027344-6.847656 4.542969-10.753906 4.542969-3.769531 0-7.542968-1.410157-10.457031-4.246094l-15.679687-15.246094v146.773438c0 8.285156-6.714844 15-15 15-8.28125 0-15-6.714844-15-15v-146.773438l-15.675782 15.246094c-5.9375 5.777344-15.4375 5.648437-21.210937-.296875-5.777344-5.9375-5.644531-15.433594.296875-21.210938l35.144531-34.179687c9.222656-8.972656 23.671875-8.96875 32.890625 0zm0 0"/><path d="m487.683594 197.308594-172.976563-172.992188c-15.683593-15.679687-36.53125-24.316406-58.707031-24.316406s-43.023438 8.636719-58.703125 24.316406l-172.980469 172.992188c-15.679687 15.683594-24.316406 36.53125-24.316406 58.710937 0 22.175781 8.636719 43.027344 24.316406 58.710938l172.980469 172.992187c16.183594 16.183594 37.441406 24.277344 58.703125 24.277344s42.519531-8.09375 58.707031-24.277344l172.976563-172.992187c15.679687-15.683594 24.316406-36.535157 24.316406-58.710938 0-22.179687-8.636719-43.027343-24.316406-58.710937zm-40.269532 78.921875-171.203124 171.214843c-5.398438 5.402344-12.578126 8.375-20.210938 8.375s-14.8125-2.972656-20.210938-8.375l-171.203124-171.214843c-5.394532-5.398438-8.367188-12.578125-8.367188-20.210938 0-7.632812 2.972656-14.8125 8.367188-20.207031l171.207031-171.21875c5.394531-5.402344 12.574219-8.375 20.207031-8.375s14.8125 2.972656 20.210938 8.375l171.203124 171.214844c5.398438 5.398437 8.371094 12.578125 8.371094 20.210937 0 7.632813-2.972656 14.8125-8.371094 20.210938zm0 0"/></svg>