<svg height="512pt" viewBox="0 -130 512 511" width="512pt" xmlns="http://www.w3.org/2000/svg"><path d="m263.988281 62.300781c24.222657 8.765625 50.152344 7.203125 73.101563-4.402343l23.300781-15.234376c-4.878906-3.4375-10.492187-7.242187-16.46875-11.054687-27.601563-17.605469-48.480469-26.160156-63.820313-26.160156h-54.222656c-5.789062 0-11.550781.425781-17.238281 1.265625 1.007813 2.617187 1.730469 4.441406 1.917969 4.917968 10.03125 23.832032 29 41.816407 53.429687 50.667969zm0 0"/><path d="m149.179688 203.894531c0-25.742187-21.128907-46.605469-47.191407-46.605469s-47.191406 20.863282-47.191406 46.605469c0 25.738281 21.128906 46.605469 47.191406 46.605469s47.191407-20.867188 47.191407-46.605469zm0 0"/><path d="m452.15625 203.894531c0-25.742187-21.128906-46.605469-47.191406-46.605469-26.066406 0-47.195313 20.863282-47.195313 46.605469 0 25.738281 21.128907 46.605469 47.195313 46.605469 26.0625 0 47.191406-20.867188 47.191406-46.605469zm0 0"/><path d="m416.671875 53.050781h-17.550781l-47.582032 31.039063c-17.480468 9.015625-36.789062 13.574218-56.148437 13.574218-14.082031 0-28.191406-2.417968-41.652344-7.289062-31.957031-11.570312-57.808593-36.109375-70.898437-67.320312-.03125-.070313-1.738282-3.925782-3.429688-7.71875l-62.96875 25.046874c-10.382812 3.136719-21.140625 4.730469-32 4.730469h-22.890625v-14.738281h15.179688c8.28125 0 15-6.6875 15-14.9375s-6.71875-14.9375-15-14.9375h-61.726563c-8.285156 0-14.99999975 6.6875-14.99999975 14.9375s6.71484375 14.9375 14.99999975 14.9375h16.546875v14.738281h-2.492187c-16.019532 0-29.058594 12.9375-29.058594 28.832031v75.34375c0 18.265626 10.980469 34.03125 28.75 42.347657 5.910156-34.675781 36.449219-61.089844 73.238281-61.089844 41.023438 0 74.273438 32.835937 74.273438 73.347656h154.429687c0-40.511719 33.25-73.347656 74.269532-73.347656 40.878906 0 74.050781 32.617187 74.269531 72.9375 18.519531-2.726563 32.769531-18.582031 32.769531-37.671875v-18.496094c0-51.972656-42.769531-94.265625-95.328125-94.265625zm0 0"/></svg>