<svg height="512pt" viewBox="-91 0 512 512" width="512pt" xmlns="http://www.w3.org/2000/svg"><path d="m315 265.960938h-21.011719v-19.921876h21.011719c8.28125 0 15-6.710937 15-15 0-8.277343-6.71875-15-15-15h-21.011719v-43.210937c0-30.386719-24.71875-55.109375-55.109375-55.109375h-183.777344c-30.390624 0-55.101562 24.722656-55.101562 55.109375v166.34375c0 30.386719 24.710938 55.109375 55.101562 55.109375h183.777344c30.390625 0 55.109375-24.722656 55.109375-55.109375v-43.210937h21.011719c8.28125 0 15-6.722657 15-15 0-8.289063-6.71875-15-15-15zm-188.691406 15.589843c6.792968 4.738281 8.453125 14.089844 3.703125 20.878907-2.921875 4.179687-7.570313 6.410156-12.3125 6.410156-2.960938 0-5.960938-.871094-8.578125-2.699219l-28.871094-20.179687v7.878906c0 8.289062-6.71875 15-15 15s-15-6.710938-15-15v-75.441406c0-8.289063 6.71875-15 15-15s15 6.710937 15 15v7.882812l28.871094-20.179688c6.789062-4.742187 16.148437-3.089843 20.890625 3.707032 4.75 6.792968 3.089843 16.140625-3.703125 20.882812l-36.386719 25.429688zm117.429687 12.289063c0 8.289062-6.707031 15-15 15-8.277343 0-15-6.710938-15-15v-27.710938c-4.507812 4.980469-10.976562 7.929688-17.878906 7.929688-6.898437 0-13.371094-2.949219-17.878906-7.929688v27.710938c0 8.289062-6.71875 15-15 15s-15-6.710938-15-15v-74.871094c0-6.949219 4.460937-13.007812 11.089843-15.078125 6.640626-2.082031 13.75.371094 17.710938 6.078125l.21875.332031 18.859375 28.847657 19.089844-29.179688c3.960937-5.707031 11.070312-8.160156 17.699219-6.078125 6.640624 2.070313 11.089843 8.128906 11.089843 15.078125zm0 0"/><path d="m214.746094 30.476562c-3.023438-17.660156-18.292969-30.476562-36.304688-30.476562h-64.035156c-18.011719 0-33.28125 12.816406-36.304688 30.476562l-9.800781 57.246094h156.246094zm0 0"/><path d="m78.554688 481.523438c3.023437 17.660156 18.292968 30.476562 36.304687 30.476562h64.035156c18.011719 0 33.28125-12.816406 36.300781-30.476562l9.800782-57.246094h-156.242188zm0 0"/></svg>