<svg height="512pt" viewBox="0 0 512 512" width="512pt" xmlns="http://www.w3.org/2000/svg"><path d="m453.191406 0h-394.382812c-32.425782 0-58.808594 26.382812-58.808594 58.808594v415.105468c0 21 17.085938 38.085938 38.085938 38.085938h73.832031c21 0 38.082031-17.085938 38.082031-38.085938v-293.914062h212v293.914062c0 21 17.085938 38.085938 38.082031 38.085938h73.832031c21 0 38.085938-17.085938 38.085938-38.085938v-415.105468c0-32.425782-26.378906-58.808594-58.808594-58.808594zm-75.078125 75h44.675781c8.285157 0 15 6.714844 15 15s-6.714843 15-15 15h-44.675781c-8.285156 0-15-6.714844-15-15s6.714844-15 15-15zm-324.808593 326h66.695312v61.691406zm-23.304688-110h66.4375l-66.4375 60.902344zm90 80h-66.4375l66.4375-60.902344zm-90-110v-61.691406l66.695312 61.691406zm0 212.914062v-53.605468l66.695312 61.691406h-58.609374c-4.460938 0-8.085938-3.625-8.085938-8.085938zm90-232.222656-66.695312-61.691406h66.695312zm197.503906-136.691406h-227.976562c-8.285156 0-15-6.714844-15-15s6.714844-15 15-15h227.980468c8.28125 0 15 6.714844 15 15s-6.71875 15-15.003906 15zm74.496094 205.097656 66.4375 60.902344h-66.4375zm0 152.59375v-61.691406h66.695312zm23.5625-171.691406h66.4375v60.902344zm66.4375-30h-66.695312l66.695312-61.691406zm-90-19.308594v-61.691406h66.695312zm81.917969 240.308594h-58.609375l66.691406-61.691406v53.609375c0 4.457031-3.625 8.082031-8.082031 8.082031zm0 0"/></svg>