<svg height="512pt" viewBox="-38 0 512 512" width="512pt" xmlns="http://www.w3.org/2000/svg"><path d="m30 206.023438v90.230468h173v-90.230468zm100.96875 60.15625h-30c-8.289062 0-15-6.738282-15-15.039063 0-8.3125 6.710938-15.039063 15-15.039063h30c8.28125 0 15 6.726563 15 15.039063 0 8.300781-6.71875 15.039063-15 15.039063zm0 0"/><path d="m30 326.332031v63.582031c0 18.769532 15.21875 34.035157 33.941406 34.035157h139.058594v-97.617188zm101.5 62.15625h-30c-8.28125 0-15-6.734375-15-15.035156 0-8.3125 6.71875-15.039063 15-15.039063h30c8.28125 0 15 6.726563 15 15.039063 0 8.300781-6.71875 15.035156-15 15.035156zm0 0"/><path d="m30 175.949219h376v-94.160157h-376zm107.421875-62.121094h161.15625c8.292969 0 15 6.730469 15 15.039063 0 8.300781-6.707031 15.039062-15 15.039062h-161.15625c-8.292969 0-15-6.738281-15-15.039062 0-8.308594 6.707031-15.039063 15-15.039063zm216.976563-113.828125h-272.796876c-28.441406 0-51.582031 23.1875-51.601562 51.710938h376c-.019531-28.523438-23.160156-51.710938-51.601562-51.710938zm0 0"/><path d="m233 206.023438v90.230468h173v-90.230468zm100.96875 60.15625h-30c-8.289062 0-15-6.738282-15-15.039063 0-8.3125 6.710938-15.039063 15-15.039063h30c8.28125 0 15 6.726563 15 15.039063 0 8.300781-6.71875 15.039063-15 15.039063zm0 0"/><path d="m233 326.332031v97.617188h139.058594c18.722656 0 33.941406-15.265625 33.941406-34.035157v-63.582031zm101.5 62.15625h-30c-8.28125 0-15-6.734375-15-15.035156 0-8.3125 6.71875-15.039063 15-15.039063h30c8.28125 0 15 6.726563 15 15.039063 0 8.300781-6.71875 15.035156-15 15.035156zm0 0"/><path d="m169.035156 478c0-18.777344-15.183594-34-33.914062-34-18.730469 0-33.914063 15.222656-33.914063 34s15.183594 34 33.914063 34c18.730468 0 33.914062-15.222656 33.914062-34zm0 0"/><path d="m334.792969 478c0-18.777344-15.183594-34-33.914063-34-18.730468 0-33.914062 15.222656-33.914062 34s15.183594 34 33.914062 34c18.730469 0 33.914063-15.222656 33.914063-34zm0 0"/><path d="m15 51.710938h15v30.078124h-15c-8.289062 0-15-6.738281-15-15.039062 0-8.3125 6.710938-15.039062 15-15.039062zm0 0"/><path d="m436 66.75c0 8.300781-6.710938 15.039062-15 15.039062h-15v-30.078124h15c8.289062 0 15 6.726562 15 15.039062zm0 0"/></svg>