<svg height="512pt" viewBox="-50 0 512 512" width="512pt" xmlns="http://www.w3.org/2000/svg"><path d="m265.640625 23.761719h-23.476563c-1.367187 0-2.601562-.816407-3.136718-2.074219-5.433594-12.738281-18.085938-21.6875-32.792969-21.6875s-27.359375 8.953125-32.8125 21.691406c-.539063 1.257813-1.769531 2.070313-3.136719 2.070313h-23.457031c-6.558594 0-11.878906 5.320312-11.878906 11.882812v47.523438c0 6.5625 5.320312 11.878906 11.878906 11.878906h118.8125c6.5625 0 11.878906-5.316406 11.878906-11.878906v-47.523438c0-6.5625-5.316406-11.882812-11.878906-11.882812zm0 0"/><path d="m350.730469 47.519531h-43.210938v29.371094c0 26.597656-21.558593 48.160156-48.160156 48.160156h-106.25c-26.597656 0-48.160156-21.5625-48.160156-48.160156v-29.371094h-43.160157c-34.128906 0-61.789062 27.671875-61.789062 61.800781v340.890626c0 34.117187 27.660156 61.789062 61.789062 61.789062h288.941407c34.128906 0 61.789062-27.671875 61.789062-61.789062v-340.890626c0-34.132812-27.660156-61.800781-61.789062-61.800781zm-284.21875 154.460938c5.859375-5.859375 15.359375-5.859375 21.21875 0l4.609375 4.621093 25.238281-25.242187c5.851563-5.859375 15.351563-5.859375 21.210937 0 5.859376 5.859375 5.859376 15.359375 0 21.21875l-35.199218 35.203125c-3.101563 3.097656-7.179688 4.648438-11.25 4.648438-4.070313 0-8.140625-1.550782-11.238282-4.648438l-14.589843-14.589844c-5.863281-5.863281-5.863281-15.363281 0-21.210937zm-.339844 106.519531c5.859375-5.859375 15.359375-5.859375 21.21875 0l4.609375 4.621094 25.238281-25.242188c5.863281-5.847656 15.351563-5.847656 21.210938 0 5.859375 5.859375 5.859375 15.359375 0 21.222656l-35.199219 35.199219c-2.988281 3-6.980469 4.660157-11.230469 4.660157h-.019531c-4.238281 0-8.238281-1.660157-11.238281-4.660157l-14.589844-14.589843c-5.851563-5.851563-5.851563-15.351563 0-21.210938zm74.507813 106.058594-35.199219 35.210937c-3.101563 3.101563-7.179688 4.652344-11.25 4.652344-4.070313 0-8.140625-1.550781-11.242188-4.652344l-14.589843-14.589843c-5.859376-5.859376-5.859376-15.351563 0-21.210938 5.863281-5.859375 15.351562-5.859375 21.210937 0l4.621094 4.621094 25.238281-25.238282c5.851562-5.863281 15.351562-5.863281 21.210938 0 5.859374 5.859376 5.859374 15.359376 0 21.207032zm34.46875-219.859375h158.703124c8.289063 0 15 6.71875 15 15 0 8.289062-6.710937 15-15 15h-158.703124c-8.289063 0-15-6.710938-15-15 0-8.28125 6.710937-15 15-15zm-.339844 106.519531h158.703125c8.289062 0 15 6.722656 15 15 0 8.292969-6.710938 15-15 15h-158.703125c-8.277344 0-15-6.707031-15-15 0-8.28125 6.722656-15 15-15zm160.929687 135.46875h-158.699219c-8.289062 0-15-6.707031-15-15 0-8.277344 6.710938-15 15-15h158.699219c8.28125 0 15 6.722656 15 15 0 8.292969-6.71875 15-15 15zm0 0"/></svg>