<svg height="512pt" viewBox="0 0 512 512" width="512pt" xmlns="http://www.w3.org/2000/svg"><path d="m437.019531 74.980469c-48.351562-48.351563-112.640625-74.980469-181.019531-74.980469s-132.667969 26.628906-181.019531 74.980469c-48.351563 48.351562-74.980469 112.640625-74.980469 181.019531s26.628906 132.667969 74.980469 181.019531c48.351562 48.351563 112.640625 74.980469 181.019531 74.980469s132.667969-26.628906 181.019531-74.980469c48.351563-48.351562 74.980469-112.640625 74.980469-181.019531s-26.628906-132.667969-74.980469-181.019531zm-181.019531 361.511719c-99.683594 0-180.492188-80.808594-180.492188-180.492188s80.808594-180.492188 180.492188-180.492188 180.492188 80.808594 180.492188 180.492188-80.808594 180.492188-180.492188 180.492188zm0 0"/><path d="m256 271.96875c8.808594 0 15.96875-7.160156 15.96875-15.96875s-7.160156-15.96875-15.96875-15.96875-15.96875 7.160156-15.96875 15.96875 7.160156 15.96875 15.96875 15.96875zm0 0"/><path d="m103.351562 256c0 3.75.128907 7.460938.410157 11.140625 64.488281 12.75 113.316406 69.058594 114.527343 137.007813 12.140626 3.101562 24.859376 4.75 37.960938 4.75s25.820312-1.648438 37.960938-4.75c1.210937-67.949219 50.039062-124.269532 114.527343-137.007813.28125-3.679687.410157-7.390625.410157-11.140625 0-29.578125-8.398438-57.199219-22.949219-80.601562h-259.898438c-14.550781 23.402343-22.949219 51.023437-22.949219 80.601562zm167.648438 106.96875c0 8.292969-6.71875 15-15 15-8.289062 0-15-6.707031-15-15v-26c0-8.277344 6.710938-15 15-15 8.28125 0 15 6.722656 15 15zm65.96875-152.9375h26c8.292969 0 15 6.71875 15 15 0 8.277344-6.707031 15-15 15h-26c-8.277344 0-15-6.722656-15-15 0-8.28125 6.722656-15 15-15zm-80.96875 0c25.351562 0 45.96875 20.617188 45.96875 45.96875s-20.617188 45.96875-45.96875 45.96875-45.96875-20.617188-45.96875-45.96875 20.617188-45.96875 45.96875-45.96875zm-106.96875 0h26c8.277344 0 15 6.71875 15 15 0 8.277344-6.722656 15-15 15h-26c-8.292969 0-15-6.722656-15-15 0-8.28125 6.707031-15 15-15zm0 0"/></svg>