<svg height="512pt" viewBox="-116 0 512 512" width="512pt" xmlns="http://www.w3.org/2000/svg"><path d="m261.195312 89.414062c10.570313 0 19.171876-8.601562 19.171876-19.171874v-12.644532c0-31.757812-25.839844-57.597656-57.597657-57.597656h-165.171875c-31.757812 0-57.597656 25.839844-57.597656 57.597656v12.644532c0 10.570312 8.601562 19.171874 19.171875 19.171874h26.390625v32.347657h190v-32.347657zm0 0"/><path d="m45.5625 184.097656h-19.183594c-14.542968 0-26.378906 11.835938-26.378906 26.382813v91.039062c0 7.046875 2.742188 13.671875 7.726562 18.65625 4.984376 4.980469 11.609376 7.726563 18.652344 7.726563h45.523438c7.167968 0 13.972656-2.902344 18.75-7.980469l9.171875-9.066406v61.574219c10.871093-9.285157 24.972656-14.898438 40.359375-14.898438 15.746094 0 30.148437 5.882812 41.121094 15.5625v-61.484375l8.410156 8.3125c4.773437 5.078125 11.578125 7.980469 18.75 7.980469h45.519531c14.546875 0 26.382813-11.832032 26.382813-26.378906v-91.042969c0-7.089844-2.730469-13.726563-7.691407-18.6875-4.960937-4.964844-11.597656-7.695313-18.6875-7.695313h-18.425781v-32.335937h-190zm0 0"/><path d="m15.003906 121.761719c-8.289062 0-14.99999975 6.707031-14.99999975 15 0 8.277343 6.71093775 15 14.99999975 15h30.558594v-30zm0 0"/><path d="m265.363281 151.761719c8.289063 0 15-6.722657 15-15 0-8.292969-6.710937-15-15-15h-29.800781v30zm0 0"/><path d="m140.183594 387.53125c-34.316406 0-62.234375 27.917969-62.234375 62.234375s27.917969 62.234375 62.234375 62.234375 62.234375-27.917969 62.234375-62.234375-27.917969-62.234375-62.234375-62.234375zm0 0"/></svg>