<svg height="512pt" viewBox="-120 0 512 512" width="512pt" xmlns="http://www.w3.org/2000/svg"><path d="m88.714844 255.203125h94.332031v107.328125h-94.332031zm0 0"/><path d="m229.550781 169.761719h-187.339843c-24.050782 4.839843-42.210938 26.128906-42.210938 51.578125v238.050781c0 29.007813 23.589844 52.609375 52.601562 52.609375h166.558594c29.011719 0 52.601563-23.601562 52.601563-52.609375v-238.050781c0-25.449219-18.160157-46.738282-42.210938-51.578125zm-31.511719 282.988281h-124.320312c-8.289062 0-15-6.710938-15-15 0-8.28125 6.710938-15 15-15h124.320312c8.289063 0 15 6.71875 15 15 0 8.289062-6.710937 15-15 15zm15-81.160156c0 11.550781-9.390624 20.941406-20.929687 20.941406h-112.460937c-11.539063 0-20.929688-9.390625-20.929688-20.941406v-125.449219c0-11.550781 9.390625-20.941406 20.929688-20.941406h112.460937c11.539063 0 20.929687 9.390625 20.929687 20.941406zm0 0"/><path d="m188.839844 108.730469h-37.960938v-19.320313h9.992188c10.867187 0 19.71875-8.839844 19.71875-19.710937v-9.988281h25c8.28125 0 15-6.722657 15-15 0-8.289063-6.71875-15-15-15h-25v-10c0-10.871094-8.851563-19.710938-19.71875-19.710938h-49.980469c-10.871094 0-19.71875 8.839844-19.71875 19.710938v49.988281c0 10.871093 8.847656 19.710937 19.71875 19.710937h9.988281v19.320313h-37.957031c-19.101563 0-35.171875 13.230469-39.542969 31h185c-4.367187-17.769531-20.4375-31-39.539062-31zm0 0"/></svg>