<svg height="512pt" viewBox="-84 0 512 512" width="512pt" xmlns="http://www.w3.org/2000/svg"><path d="m76.601562 314.441406v67.25h190v-67.25c46.144532-30.789062 76.597657-83.328125 76.597657-142.839844 0-94.621093-76.980469-171.601562-171.597657-171.601562-94.621093 0-171.601562 76.980469-171.601562 171.601562 0 59.511719 30.453125 112.050782 76.601562 142.839844zm53.238282-115.75c0-16.5625 19.488281-58.121094 25.890625-71.78125 2.871093-6.128906 9.097656-10.082031 15.871093-10.082031 6.769532 0 13 3.953125 15.867188 10.082031 6.402344 13.660156 25.890625 55.21875 25.890625 71.78125 0 23.019532-18.730469 41.757813-41.757813 41.757813-23.03125 0-41.761718-18.738281-41.761718-41.757813zm41.761718-139.402344c61.929688 0 112.308594 50.382813 112.308594 112.3125 0 8.289063-6.710937 15-15 15-8.28125 0-15-6.710937-15-15 0-45.390624-36.929687-82.3125-82.308594-82.3125-45.390624 0-82.320312 36.921876-82.320312 82.3125 0 8.289063-6.722656 15-15 15-8.292969 0-15-6.710937-15-15 0-61.929687 50.378906-112.3125 112.320312-112.3125zm0 0"/><path d="m183.359375 198.71875c-.128906-3.1875-3.507813-14.328125-11.757813-33.839844-8.273437 19.550782-11.640624 30.691406-11.761718 33.859375 0 6.433594 5.269531 11.710938 11.761718 11.710938 6.46875 0 11.738282-5.257813 11.757813-11.730469zm0 0"/><path d="m268.121094 411.691406h-193.042969c-15.703125 0-28.476563 12.773438-28.476563 28.480469v43.347656c0 15.707031 12.773438 28.480469 28.476563 28.480469h193.042969c15.703125 0 28.480468-12.773438 28.480468-28.480469v-43.347656c0-15.703125-12.777343-28.480469-28.480468-28.480469zm0 0"/></svg>