<svg height="512pt" viewBox="0 0 512 512" width="512pt" xmlns="http://www.w3.org/2000/svg"><path d="m512 95.550781c-.09375-18.53125-22.671875-27.632812-35.773438-14.53125l-17.628906 17.628907c-3.359375 3.359374-7.324218 5.664062-11.519531 7.199218-11.328125 4.191406-24.574219 1.921875-33.726563-7.199218-6.242187-6.242188-9.375-14.433594-9.375-22.625 0-3.777344.832032-7.519532 2.175782-11.101563 1.597656-4.195313 3.839844-8.160156 7.230468-11.523437l17.621094-17.628907c13.09375-13.105469 3.988282-35.6718748-14.539062-35.769531-.15625 0-.308594 0-.464844 0-50.816406 0-91.96875 39.585938-95.359375 89.535156-1.238281 9.425782.089844 19.863282 2.289063 28.835938 1.730468 7.0625-.425782 14.515625-5.570313 19.660156l-179.265625 179.238281c-5.210938 5.207031-12.761719 7.214844-19.910156 5.449219-7.398438-1.828125-16.0625-2.808594-28.648438-2.046875-49.984375 3.328125-89.535156 44.511719-89.535156 95.328125v.441406c.0898438 18.535156 22.667969 27.644532 35.773438 14.539063l20.21875-20.222657c3.328124-3.328124 7.328124-5.664062 11.488281-7.261718 11.328125-4.191406 24.609375-1.921875 33.757812 7.261718 6.242188 6.175782 9.375 14.433594 9.375 22.625 0 3.777344-.796875 7.488282-2.175781 11.136719-1.566406 4.191407-3.808594 8.191407-7.199219 11.488281l-20.21875 20.21875c-13.105469 13.105469-4 35.683594 14.53125 35.773438h.449219c50.816406-.03125 91.96875-39.617188 95.359375-89.566406.871094-9.351563-.339844-19.953125-2.457031-29.027344-1.632813-6.988281.558594-14.320312 5.628906-19.394531l179.441406-179.414063c5.171875-5.167968 12.652344-7.230468 19.765625-5.535156 8.480469 2.019531 18.296875 3.144531 28.722657 2.296875 49.953124-3.390625 89.539062-44.542969 89.539062-95.359375 0-.148438 0-.300781 0-.449219zm0 0"/></svg>