<svg height="512pt" viewBox="-53 0 512 512" width="512pt" xmlns="http://www.w3.org/2000/svg"><path d="m202.5 0c-111.660156 0-202.5 90.710938-202.5 202.199219 0 36.390625 9.378906 74.980469 27.890625 114.679687 14.550781 31.230469 34.769531 63.261719 60.097656 95.210938 42.882813 54.082031 85.222657 88.96875 87 90.429687 7.710938 6.320313 17.613281 9.480469 27.511719 9.480469s19.800781-3.160156 27.511719-9.480469c1.777343-1.460937 44.117187-36.347656 87-90.429687 25.328125-31.949219 45.546875-63.980469 60.097656-95.210938 18.511719-39.699218 27.890625-78.289062 27.890625-114.679687 0-111.488281-90.839844-202.199219-202.5-202.199219zm80.609375 302.921875c0 8.277344-6.710937 15-15 15-8.28125 0-15-6.722656-15-15v-75.613281h-101.21875v75.613281c0 8.277344-6.71875 15-15 15-8.289063 0-15-6.722656-15-15v-145.011719c0-28.238281 22.96875-51.21875 51.210937-51.21875h58.796876c28.242187 0 51.210937 22.980469 51.210937 51.21875zm0 0"/><path d="m231.898438 136.691406h-58.796876c-11.703124 0-21.210937 9.519532-21.210937 21.21875v39.398438h101.21875v-39.398438c0-11.699218-9.507813-21.21875-21.210937-21.21875zm0 0"/></svg>