<svg height="512pt" viewBox="-53 0 512 512" width="512pt" xmlns="http://www.w3.org/2000/svg"><path d="m227.800781 136.691406h-68.230469c-1.480468 0-2.691406 1.207032-2.691406 2.6875v57.929688h70.921875c16.710938 0 30.308594-13.597656 30.308594-30.308594s-13.597656-30.308594-30.308594-30.308594zm0 0"/><path d="m202.5 0c-111.660156 0-202.5 90.710938-202.5 202.199219 0 36.390625 9.378906 74.980469 27.878906 114.679687 14.5625 31.230469 34.78125 63.261719 60.109375 95.210938 42.882813 54.082031 85.210938 88.96875 86.992188 90.429687 7.71875 6.320313 17.621093 9.480469 27.519531 9.480469s19.800781-3.160156 27.511719-9.480469c1.777343-1.460937 44.109375-36.347656 86.988281-90.429687 25.328125-31.949219 45.558594-63.980469 60.109375-95.210938 18.5-39.699218 27.890625-78.289062 27.890625-114.679687 0-111.488281-90.839844-202.199219-202.5-202.199219zm85.609375 257.609375c0 33.261719-27.050781 60.3125-60.308594 60.3125h-68.230469c-18.019531 0-32.691406-14.660156-32.691406-32.691406v-145.851563c0-18.019531 14.671875-32.6875 32.691406-32.6875h68.230469c33.257813 0 60.308594 27.058594 60.308594 60.308594 0 18.039062-7.960937 34.25-20.550781 45.308594 12.589844 11.0625 20.550781 27.269531 20.550781 45.300781zm0 0"/><path d="m227.800781 227.308594h-70.921875v57.921875c0 1.480469 1.210938 2.691406 2.691406 2.691406h68.230469c16.710938 0 30.308594-13.601563 30.308594-30.3125s-13.597656-30.300781-30.308594-30.300781zm0 0"/></svg>