<svg height="512pt" viewBox="0 -8 512 512" width="512pt" xmlns="http://www.w3.org/2000/svg"><path d="m83.179688 136.628906v71.480469h252.109374v-128.429687h-191.738281zm0 0"/><path d="m415.800781 221.167969v-151.539063c0-38.390625-31.140625-69.628906-69.429687-69.628906h-208.882813c-18.546875 0-35.988281 7.25-49.109375 20.421875l-68.070312 68.316406c-13.097656 13.152344-20.308594 30.628907-20.308594 49.222657v83.207031c0 38.390625 31.148438 69.632812 69.429688 69.632812h276.941406c38.289062 0 69.429687-31.242187 69.429687-69.632812zm-339.929687 16.941406c-12.519532 0-22.691406-10.191406-22.691406-22.71875v-81.890625c0-6.25 2.601562-12.289062 7.148437-16.570312l64.75-61.082032c4.25-3.980468 9.761719-6.167968 15.550781-6.167968h201.972656c12.507813 0 22.6875 10.1875 22.6875 22.71875v142.988281c0 12.53125-10.179687 22.722656-22.6875 22.722656zm0 0"/><path d="m497 327.753906c-8.285156 0-15 6.714844-15 15v137.246094c0 8.285156 6.714844 15 15 15s15-6.714844 15-15v-137.246094c0-8.285156-6.714844-15-15-15zm0 0"/><path d="m269.160156 320.796875h-117.855468v58.417969c0 47.25 38.324218 85.6875 85.425781 85.6875h215.539062v-107.054688h-183.113281v-37.050781zm0 0"/></svg>