<svg height="512pt" viewBox="-45 0 512 512" width="512pt" xmlns="http://www.w3.org/2000/svg"><path d="m144.296875 196.359375h133.40625v43.527344h-133.40625zm0 0"/><path d="m187.539062 421.625c0 12.964844 10.523438 23.507812 23.460938 23.507812s23.460938-10.542968 23.460938-23.507812c0-6.332031-7.410157-28.910156-23.460938-65.214844-16.050781 36.304688-23.460938 58.882813-23.460938 65.214844zm0 0"/><path d="m417.40625 235.453125-75.925781-114.125c-5.082031-7.652344-13.574219-12.214844-22.75-12.214844h-57.296875v-25.09375c15.351562-.800781 27.597656-13.570312 27.597656-29.152343v-25.675782c0-16.09375-13.070312-29.191406-29.132812-29.191406h-97.796876c-16.066406 0-29.132812 13.097656-29.132812 29.191406v25.675782c0 15.582031 12.246094 28.351562 27.597656 29.15625v25.09375h-57.296875c-9.175781 0-17.671875 4.5625-22.742187 12.195312l-75.914063 114.121094c-3.015625 4.503906-4.613281 9.765625-4.613281 15.214844v233.960937c0 15.105469 12.269531 27.390625 27.332031 27.390625h367.335938c15.0625 0 27.332031-12.285156 27.332031-27.390625v-233.960937c0-5.441407-1.585938-10.691407-4.59375-15.195313zm-206.40625 239.691406c-29.449219 0-53.40625-24.007812-53.40625-53.519531 0-14.835938 12.300781-48.65625 36.566406-100.507812 3.054688-6.523438 9.664063-10.734376 16.839844-10.734376s13.785156 4.210938 16.839844 10.722657c24.265625 51.863281 36.566406 85.683593 36.566406 100.519531 0 29.511719-23.957031 53.519531-53.40625 53.519531zm96.652344-230.488281c0 13.914062-11.300782 25.242188-25.1875 25.242188h-142.929688c-13.886718 0-25.1875-11.324219-25.1875-25.242188v-53.070312c0-13.914063 11.300782-25.238282 25.1875-25.238282h142.929688c13.886718 0 25.1875 11.324219 25.1875 25.238282zm0 0"/></svg>