<svg height="512pt" viewBox="-23 0 512 512" width="512pt" xmlns="http://www.w3.org/2000/svg"><path d="m353.496094 481.972656h-280.429688c-8.296875 0-15.023437 6.722656-15.023437 15.015625 0 8.289063 6.726562 15.011719 15.023437 15.011719h280.429688c8.296875 0 15.023437-6.722656 15.023437-15.015625 0-8.289063-6.726562-15.011719-15.023437-15.011719zm0 0"/><path d="m98.105469 398.878906h230.351562v53.066406h-230.351562zm0 0"/><path d="m98.105469 315.78125h230.351562v53.066406h-230.351562zm0 0"/><path d="m86.996094 285.753906c-20.128906 0-36.503906-16.363281-36.503906-36.472656 0-20.117188 16.375-36.484375 36.503906-36.484375h11.109375v72.957031h230.351562v-96.207031c0-29.058594-23.65625-52.699219-52.722656-52.699219h-47.429687v-32.132812c17.421874-5.109375 31.179687-18.859375 36.289062-36.269532h32.195312v5.03125c0 18.40625 14.984376 33.382813 33.402344 33.382813h62.964844c18.417969 0 33.402344-14.976563 33.402344-33.382813v-40.09375c0-18.40625-14.984375-33.382812-33.402344-33.382812h-62.964844c-18.417968 0-33.402344 14.976562-33.402344 33.382812v5.035157h-32.195312c-6.503906-22.175781-27.046875-38.417969-51.3125-38.417969s-44.808594 16.242188-51.316406 38.417969h-32.195313v-5.035157c0-18.40625-14.984375-33.382812-33.402343-33.382812h-62.964844c-18.417969 0-33.402344 14.976562-33.402344 33.382812v40.09375c0 18.40625 14.984375 33.382813 33.402344 33.382813h62.964844c18.417968 0 33.402343-14.976563 33.402343-33.382813v-5.03125h32.195313c5.109375 17.410157 18.871094 31.160157 36.292968 36.269532v32.132812h-47.433593c-26.769531 0-48.953125 20.058594-52.289063 45.921875h-11.539062c-36.695313 0-66.550782 29.835938-66.550782 66.511719 0 36.660156 29.855469 66.5 66.550782 66.5h11.109375v-30.027344zm0 0"/><path d="m431.597656 345.808594h-5.042968v-6.40625c0-29.578125-24.074219-53.648438-53.679688-53.648438h-44.417969v30.027344h44.417969c13.027344 0 23.636719 10.597656 23.636719 23.621094v6.40625h-5.035157c-18.417968 0-33.402343 14.976562-33.402343 33.382812v37.902344c0 18.40625 14.984375 33.382812 33.402343 33.382812h40.121094c18.417969 0 33.402344-14.976562 33.402344-33.382812v-37.902344c0-18.40625-14.984375-33.382812-33.402344-33.382812zm0 0"/></svg>