<svg width="194" height="37" viewBox="0 0 194 37" fill="none" xmlns="http://www.w3.org/2000/svg">
<g clip-path="url(#clip0)">
<path d="M14.25 9.95C15.6167 9.95 16.95 10.15 18.25 10.55C19.5833 10.9167 20.7333 11.4833 21.7 12.25C22.7 11.5833 23.8167 11.0333 25.05 10.6C26.3167 10.1667 27.8333 9.95 29.6 9.95C30.8667 9.95 32.1 10.1167 33.3 10.45C34.5333 10.7833 35.6167 11.3167 36.55 12.05C37.5167 12.75 38.2833 13.7 38.85 14.9C39.4167 16.0667 39.7 17.5 39.7 19.2V34.95C39.3667 35.05 38.8333 35.15 38.1 35.25C37.4 35.35 36.6667 35.4 35.9 35.4C35.1667 35.4 34.5 35.35 33.9 35.25C33.3333 35.15 32.85 34.95 32.45 34.65C32.05 34.35 31.7333 33.95 31.5 33.45C31.3 32.9167 31.2 32.2333 31.2 31.4V19.45C31.2 18.45 30.9167 17.7333 30.35 17.3C29.7833 16.8333 29.0167 16.6 28.05 16.6C27.5833 16.6 27.0833 16.7167 26.55 16.95C26.0167 17.15 25.6167 17.3667 25.35 17.6C25.3833 17.7333 25.4 17.8667 25.4 18C25.4 18.1 25.4 18.2 25.4 18.3V34.95C25.0333 35.05 24.4833 35.15 23.75 35.25C23.05 35.35 22.3333 35.4 21.6 35.4C20.8667 35.4 20.2 35.35 19.6 35.25C19.0333 35.15 18.55 34.95 18.15 34.65C17.75 34.35 17.4333 33.95 17.2 33.45C17 32.9167 16.9 32.2333 16.9 31.4V19.45C16.9 18.45 16.5833 17.7333 15.95 17.3C15.35 16.8333 14.6167 16.6 13.75 16.6C13.15 16.6 12.6333 16.7 12.2 16.9C11.7667 17.0667 11.4 17.2333 11.1 17.4V34.95C10.7667 35.05 10.2333 35.15 9.5 35.25C8.8 35.35 8.06667 35.4 7.3 35.4C6.56667 35.4 5.9 35.35 5.3 35.25C4.73333 35.15 4.25 34.95 3.85 34.65C3.45 34.35 3.13333 33.95 2.9 33.45C2.7 32.9167 2.6 32.2333 2.6 31.4V16.3C2.6 15.4 2.78333 14.6833 3.15 14.15C3.55 13.6167 4.08333 13.1167 4.75 12.65C5.88333 11.85 7.28333 11.2 8.95 10.7C10.65 10.2 12.4167 9.95 14.25 9.95ZM44.8852 11.05C45.2185 10.95 45.7352 10.85 46.4352 10.75C47.1685 10.65 47.9185 10.6 48.6852 10.6C49.4185 10.6 50.0685 10.65 50.6352 10.75C51.2352 10.85 51.7352 11.05 52.1352 11.35C52.5352 11.65 52.8352 12.0667 53.0352 12.6C53.2685 13.1 53.3852 13.7667 53.3852 14.6V25.35C53.3852 26.7167 53.7185 27.7 54.3852 28.3C55.0518 28.8667 56.0185 29.15 57.2852 29.15C58.0518 29.15 58.6685 29.0833 59.1352 28.95C59.6352 28.8167 60.0185 28.6833 60.2852 28.55V11.05C60.6185 10.95 61.1352 10.85 61.8352 10.75C62.5685 10.65 63.3185 10.6 64.0852 10.6C64.8185 10.6 65.4685 10.65 66.0352 10.75C66.6352 10.85 67.1352 11.05 67.5352 11.35C67.9352 11.65 68.2352 12.0667 68.4352 12.6C68.6685 13.1 68.7852 13.7667 68.7852 14.6V29.8C68.7852 31.4667 68.0852 32.7167 66.6852 33.55C65.5185 34.2833 64.1185 34.8333 62.4852 35.2C60.8852 35.6 59.1352 35.8 57.2352 35.8C55.4352 35.8 53.7685 35.6 52.2352 35.2C50.7352 34.8 49.4352 34.1833 48.3352 33.35C47.2352 32.5167 46.3852 31.45 45.7852 30.15C45.1852 28.8167 44.8852 27.2167 44.8852 25.35V11.05ZM73.9867 11.05C74.3201 10.95 74.8367 10.85 75.5367 10.75C76.2701 10.65 77.0201 10.6 77.7867 10.6C78.5201 10.6 79.1701 10.65 79.7367 10.75C80.3367 10.85 80.8367 11.05 81.2367 11.35C81.6367 11.65 81.9367 12.0667 82.1367 12.6C82.3701 13.1 82.4867 13.7667 82.4867 14.6V25.35C82.4867 26.7167 82.8201 27.7 83.4867 28.3C84.1534 28.8667 85.1201 29.15 86.3867 29.15C87.1534 29.15 87.7701 29.0833 88.2367 28.95C88.7367 28.8167 89.1201 28.6833 89.3867 28.55V11.05C89.7201 10.95 90.2367 10.85 90.9367 10.75C91.6701 10.65 92.4201 10.6 93.1867 10.6C93.9201 10.6 94.5701 10.65 95.1367 10.75C95.7367 10.85 96.2367 11.05 96.6367 11.35C97.0367 11.65 97.3367 12.0667 97.5367 12.6C97.7701 13.1 97.8867 13.7667 97.8867 14.6V29.8C97.8867 31.4667 97.1867 32.7167 95.7867 33.55C94.6201 34.2833 93.2201 34.8333 91.5867 35.2C89.9867 35.6 88.2367 35.8 86.3367 35.8C84.5367 35.8 82.8701 35.6 81.3367 35.2C79.8367 34.8 78.5367 34.1833 77.4367 33.35C76.3367 32.5167 75.4867 31.45 74.8867 30.15C74.2867 28.8167 73.9867 27.2167 73.9867 25.35V11.05ZM119.338 34.35C118.872 34.7167 118.188 35.0167 117.288 35.25C116.388 35.4833 115.372 35.6 114.238 35.6C112.938 35.6 111.805 35.4333 110.838 35.1C109.905 34.7667 109.255 34.2333 108.888 33.5C108.588 32.9333 108.222 32.15 107.788 31.15C107.388 30.1167 106.955 28.9833 106.488 27.75C106.022 26.4833 105.538 25.1333 105.038 23.7C104.538 22.2667 104.055 20.85 103.588 19.45C103.155 18.05 102.755 16.7 102.388 15.4C102.022 14.1 101.722 12.95 101.488 11.95C101.955 11.4833 102.572 11.0833 103.338 10.75C104.138 10.3833 105.005 10.2 105.938 10.2C107.105 10.2 108.055 10.45 108.788 10.95C109.555 11.4167 110.122 12.3167 110.488 13.65L112.438 21.3C112.805 22.8 113.155 24.1667 113.488 25.4C113.822 26.6 114.072 27.5333 114.238 28.2H114.488C115.122 25.7333 115.788 23 116.488 20C117.188 17 117.822 14.05 118.388 11.15C118.955 10.85 119.588 10.6167 120.288 10.45C121.022 10.2833 121.722 10.2 122.388 10.2C123.555 10.2 124.538 10.45 125.338 10.95C126.138 11.45 126.538 12.3167 126.538 13.55C126.538 14.0833 126.405 14.8667 126.138 15.9C125.905 16.9 125.588 18.05 125.188 19.35C124.822 20.6167 124.372 21.9667 123.838 23.4C123.338 24.8333 122.822 26.2333 122.288 27.6C121.755 28.9667 121.222 30.25 120.688 31.45C120.188 32.6167 119.738 33.5833 119.338 34.35ZM131.184 35C130.651 34.5333 130.218 33.9833 129.884 33.35C129.584 32.7167 129.434 32 129.434 31.2C129.434 30.5333 129.584 29.8833 129.884 29.25C130.218 28.5833 130.618 27.9667 131.084 27.4L139.684 17.3H130.484C130.284 16.9333 130.084 16.4667 129.884 15.9C129.718 15.3333 129.634 14.7167 129.634 14.05C129.634 12.8833 129.884 12.05 130.384 11.55C130.918 11.0167 131.618 10.75 132.484 10.75H148.234C148.768 11.2167 149.184 11.7667 149.484 12.4C149.818 13.0333 149.984 13.75 149.984 14.55C149.984 15.2167 149.818 15.8833 149.484 16.55C149.184 17.1833 148.801 17.7833 148.334 18.35L139.934 28.45H149.734C149.934 28.8167 150.118 29.2833 150.284 29.85C150.484 30.4167 150.584 31.0333 150.584 31.7C150.584 32.8667 150.318 33.7167 149.784 34.25C149.284 34.75 148.601 35 147.734 35H131.184Z" fill="#247BA0"/>
</g>
<defs>
<clipPath id="clip0">
<rect width="194" height="37" fill="white"/>
</clipPath>
</defs>
</svg>
