<?xml version="1.0" encoding="UTF-8"?>
<svg width="886px" height="558px" viewBox="0 0 886 558" version="1.1" xmlns="http://www.w3.org/2000/svg" xmlns:xlink="http://www.w3.org/1999/xlink">
    <!-- Generator: Sketch 63.1 (92452) - https://sketch.com -->
    <title>undraw_heavy_box_agqi</title>
    <desc>Created with Sketch.</desc>
    <g id="Page-1" stroke="none" stroke-width="1" fill="none" fill-rule="evenodd">
        <g id="undraw_heavy_box_agqi" fill-rule="nonzero">
            <path d="M681.59125,421.11103 C718.01703,330.04364 706.99808,228.35687 660.01866,150.25937 L168.2454,218.35103 L639.5213,120.13416 C440.89839,-127.5505 54.30791,36.73567 91.5733,349.45516 L681.59125,421.11103 Z" id="Path" fill="#F2F2F2"></path>
            <rect id="Rectangle" fill="#4CE1B6" x="76.75322" y="320.44454" width="626.52594" height="195.09542"></rect>
            <path d="M251.48503,296.65242 C257.10631,301.01773 259.16185,302.42697 260.35893,302.24811 C318.3585,319.1379 267.51331,338.93145 239.33271,305.33265 L251.48503,296.65242 Z" id="Path" fill="#FFB8B8"></path>
            <polygon id="Path" fill="#FFB8B8" points="60.099 475.093 60.099 514.747 88.649 513.161 80.719 471.921"></polygon>
            <polygon id="Path" fill="#FFB8B8" points="218.713 475.093 218.713 514.747 190.162 513.161 198.093 471.921"></polygon>
            <path d="M131.47511,270.48108 L174.30093,268.89494 C273.09463,372.46607 235.73287,348.84348 232.98817,490.95476 L180.6455,475.09337 L191.7485,376.75259 C191.75414,376.74883 194.6773,374.80005 192.2475,374.75513 C177.05102,379.97742 165.9632,315.31837 133.06121,322.82377 C95.62048,321.03277 89.52521,376.57414 74.37397,376.75259 L85.47703,475.09337 L33.13433,490.95476 C27.27383,334.78889 -1.44867,370.06696 91.82157,268.89494 L131.47511,270.48108 Z" id="Path" fill="#646777"></path>
            <path d="M68.02944,502.05775 C68.02944,502.05775 61.68488,489.36862 53.75417,495.71319 C45.82346,502.05776 26.78976,521.09145 26.78976,521.09145 C26.78976,521.09145 -19.20835,541.7113 9.3422,554.40045 C37.89275,567.0896 61.68488,536.95289 61.68488,536.95289 C88.87888,531.28224 104.5645,527.65179 90.14307,497.98889 C81.95546,501.53191 70.36875,505.63376 68.02944,502.05775 Z" id="Path" fill="#646777"></path>
            <path d="M210.78219,502.05775 C210.78219,502.05775 217.12675,489.36862 225.05746,495.71319 C232.98817,502.05776 252.02187,521.09145 252.02187,521.09145 C252.02187,521.09145 298.01998,541.7113 269.46943,554.40045 C240.91888,567.0896 217.12675,536.95289 217.12675,536.95289 C189.93275,531.28224 174.24713,527.65179 188.66856,497.98889 C196.85617,501.53191 208.44288,505.63376 210.78219,502.05775 Z" id="Path" fill="#646777"></path>
            <path d="M174.30093,91.24708 C171.94186,130.73258 118.05282,127.25627 117.20006,91.24676 C119.5589,51.76157 173.44794,55.23788 174.30093,91.24708 Z" id="Path" fill="#4CE1B6"></path>
            <path d="M133.06125,111.86692 C146.93712,153.80467 114.17693,130.97233 160.02566,164.20959 L177.47321,129.31448 C177.47321,129.31448 164.78408,124.55605 166.37021,107.10848 L133.06125,111.86692 Z" id="Path" fill="#4CE1B6"></path>
            <path d="M218.7129,135.65904 L171.43056,124.86677 C172.76043,153.37647 142.3354,147.63847 137.02656,133.29739 L91.82156,159.45117 C110.79544,230.11817 105.98678,233.03394 80.71856,278.41179 C71.0752,287.21779 85.49702,292.26485 98.05211,287.4462 C107.62811,281.53596 112.49125,276.28383 122.75211,277.62031 C171.23729,287.71591 211.60045,290.09884 217.9882,286.15397 C220.27396,282.88264 217.92203,136.22692 218.7129,135.65904 Z" id="Path" fill="#247BA0"></path>
            <path d="M206.02376,138.83137 C207.6099,138.83137 215.78036,134.988978 215.78036,134.988978 C239.55136,134.58902 255.50328,294.48637 256.78029,299.03167 L240.91888,310.13467 L215.54061,245.10286 L206.02376,138.83137 Z" id="Path" fill="#247BA0"></path>
            <path d="M94.99385,324.40989 C95.80485,330.39605 97.18495,397.62047 121.26637,366.21844 C124.42581,343.30844 113.68416,336.46926 110.85527,321.23761 L94.99385,324.40989 Z" id="Path" fill="#FFB8B8"></path>
            <path d="M101.33842,159.45117 L96.4785,156.75686 C83.44921,156.32874 87.5555,190.818 82.04307,216.0758 C77.53966,245.50046 78.82192,277.94563 84.10543,321.32313 C84.56748,337.2409 113.07793,327.21302 117.19983,325.99604 C117.19983,325.99604 107.68298,260.96423 112.44141,249.86124 C117.19983,238.75825 101.33842,159.45117 101.33842,159.45117 Z" id="Path" fill="#247BA0"></path>
            <path d="M173.05303,63.56973 C168.648334,56.416966 161.753668,51.1461459 153.69603,48.77173 L147.77782,53.50628 L150.07872,47.98396 C148.143774,47.6887753 146.18542,47.5755903 144.22935,47.64589 L138.90447,54.4922 L141.10836,47.8804 C118.25928,50.3338 104.74065,76.56363 116.6028,94.92124 C118.43264,89.29801 120.65349,84.02153 122.48333,78.39824 C123.921421,78.5942848 125.378977,78.601385 126.81891,78.41936 L129.04519,73.22483 L129.66705,78.19966 C136.56722,77.59844 146.80188,76.27866 153.34352,75.06935 L152.70746,71.25297 L156.51312,74.42438 C158.51735,73.96295 159.70728,73.54461 159.60895,73.22483 C164.47408,81.06802 169.29468,86.07763 174.15969,93.92077 C176.00652,82.85772 179.26675,73.66177 173.05303,63.56973 Z" id="Path" fill="#646777"></path>
            <rect id="Rectangle" fill="#FFFFFF" x="527.41215" y="343.97895" width="138.36733" height="65.63579"></rect>
            <rect id="Rectangle" fill="#E6E6E6" x="553.57776" y="357.72699" width="86.0361" height="7.8701"></rect>
            <rect id="Rectangle" fill="#E6E6E6" x="553.57776" y="372.8618" width="86.0361" height="7.8701"></rect>
            <rect id="Rectangle" fill="#E6E6E6" x="553.57776" y="387.9966" width="86.0361" height="7.8701"></rect>
            <polygon id="Path" fill="#FFFFFF" points="406.916 359.57 402.415 351.775 397.915 343.979 393.414 351.775 388.913 359.57 393.749 359.57 393.749 382.144 402.08 382.144 402.08 359.57"></polygon>
            <circle id="Oval" fill="#646777" cx="711.88818" cy="483.13309" r="37.06013"></circle>
            <circle id="Oval" fill="#E6E6E6" cx="718.62639" cy="483.13309" r="16.42438"></circle>
            <polygon id="Path" fill="#646777" points="688.515 509.033 769.374 542.724 766.847 550.726 720.311 545.461 641.558 510.507 685.356 515.561"></polygon>
            <path d="M759.98962,541.20611 L860.55438,211.31922 L885.04454,167.82831 L885.13054,167.40861 C885.20954,167.0249 887.00754,157.93445 882.5848,151.35129 C880.330885,148.04337 876.803308,145.821258 872.8464,145.21682 C859.33009,142.68259 829.09247,141.43398 827.8122,141.38196 L827.57078,141.37209 L827.33143,141.40478 C826.50519,141.51747 807.18055,144.34226 802.81207,161.21698 L781.78767,199.48068 L781.705,199.75294 L686.52779,512.65837 L691.76569,514.25162 L786.86019,201.61843 L807.95492,163.22579 L808.04047,162.87293 C811.12947,150.17443 825.89729,147.20364 827.86147,146.86372 C830.95047,146.99553 859.37032,148.26018 871.83707,150.59783 C874.339964,150.939047 876.585447,152.3132 878.02829,154.38663 C880.75417,158.42281 880.07187,164.36542 879.83169,165.92763 L855.49169,209.15226 L855.4045,209.43747 L754.75254,539.60957 L759.98962,541.20611 Z" id="Path" fill="#646777"></path>
            <rect id="Rectangle" fill="#3F3D56" transform="translate(810.522018, 240.369900) rotate(-79.762140) translate(-810.522018, -240.369900) " x="807.784633" y="203.46721" width="5.47477" height="73.80538"></rect>
            <rect id="Rectangle" fill="#3F3D56" transform="translate(796.637884, 285.963656) rotate(-78.464690) translate(-796.637884, -285.963656) " x="793.900514" y="249.164341" width="5.47474" height="73.59863"></rect>
            <rect id="Rectangle" fill="#3F3D56" transform="translate(771.424877, 368.759572) rotate(-74.032140) translate(-771.424877, -368.759572) " x="768.687562" y="332.144777" width="5.47463" height="73.22959"></rect>
            <polygon id="Path" fill="#646777" points="784.589 511.372 786.585 506.273 718.249 479.515 714.893 443.181 778.675 467.004 799.338 496.902 803.843 493.79 782.201 462.476 708.64 435 713.108 483.382"></polygon>
            <circle id="Oval" fill="#646777" cx="808.32876" cy="518.50867" r="37.06013"></circle>
            <circle id="Oval" fill="#E6E6E6" cx="818.01493" cy="520.19322" r="16.42438"></circle>
        </g>
    </g>
</svg>